<?xml version="1.0" standalone="no"?>
<!DOCTYPE svg PUBLIC "-//W3C//DTD SVG 1.1//EN" "http://www.w3.org/Graphics/SVG/1.1/DTD/svg11.dtd" >
<svg xmlns="http://www.w3.org/2000/svg">
<metadata>Generated by IcoMoon</metadata>
<defs>
<font id="hitour" horiz-adv-x="512">
<font-face units-per-em="512" ascent="480" descent="-32" />
<missing-glyph horiz-adv-x="512" />
<glyph unicode="&#x20;" d="" horiz-adv-x="256" />
<glyph unicode="&#xe600;" d="M152.096 196.8c-18.080-7.328-32.768-13.76-44.064-19.264s-24.192-12.736-38.752-21.6c-14.56-8.928-26.112-18.080-34.624-27.52-8.544-9.44-16.064-20.992-22.624-34.624-6.496-13.664-10.528-28.864-12.032-45.632v-80.16h512v80.16c0 10.464-1.504 20.448-4.544 29.888-3.008 9.472-6.624 17.728-10.88 24.768-4.288 7.104-11.072 14.56-20.352 22.4-9.28 7.872-17.44 14.304-24.512 19.296-7.008 4.992-17.056 10.912-30.080 17.728s-23.456 12.032-31.232 15.712c-7.776 3.68-19.2 8.896-34.24 15.744-29.632-25.184-63.008-37.76-100.16-37.76-39.136 0-73.792 13.6-103.904 40.864zM390.048 340c0-38.816-13.184-71.84-39.552-99.136-26.336-27.264-57.952-40.896-94.848-40.896-36.928 0-68.416 13.632-94.528 40.896-26.080 27.264-39.136 60.32-39.136 99.136s13.056 71.808 39.136 99.072c26.112 27.296 57.6 40.928 94.528 40.928 36.896 0 68.512-13.632 94.848-40.928 26.368-27.264 39.552-60.288 39.552-99.072z" />
<glyph unicode="&#xe601;" d="M198.88 181.856c-4.288-5.952-19.136-16.16-44.512-30.688-24.736-14.176-40.416-23.104-47.008-26.72-6.272-3.936-12.864-5.952-19.776-5.952-4.96 1.984-7.264 6.592-6.944 13.888 5.952 1.632 12.704 4.448 20.288 8.416 6.912 2.624 17.312 7.552 31.168 14.848 1.312 22.4 2.304 44.672 2.976 66.752-0.992-0.32-1.824-0.64-2.464-0.992-26.4-8.896-47.008-14.688-61.856-17.312-13.184 1.984-19.776 5.12-19.776 9.408 0.32 4.288 3.136 7.936 8.416 10.88 3.936-1.984 8.384-2.976 13.344-2.976 17.824 2.976 35.264 7.104 52.448 12.384 3.968 1.312 7.424 2.464 10.4 3.456 0.32 20.768 0.672 41.248 0.992 61.344 0 6.912-1.824 13.184-5.44 18.784v1.504c-11.232-1.632-23.936-2.816-38.112-3.456-6.912 0-12.544 1.152-16.832 3.456-3.968 2.304-6.432 5.44-7.424 9.408 1.312 3.296 3.808 5.952 7.424 7.904 7.264-1.984 14.528-3.296 21.792-3.968 22.752-0.32 41.376 1.472 55.904 5.44 14.848 3.616 23.264 5.76 25.248 6.432 2.304 0.672 4.288 0.992 5.952 0.992 3.616-0.32 5.44-2.656 5.44-6.912-1.696-1.984-5.664-4.288-11.904-6.912-6.272-2.656-16.672-5.632-31.2-8.896 5.632-3.968 8.096-7.936 7.424-11.872-0.32-23.104-1.312-45.696-2.976-67.776 5.952 1.984 10.88 4.096 14.848 6.432 2.304 1.312 5.12 2.144 8.416 2.464 3.616-0.992 5.44-2.944 5.44-5.92-4.608-5.664-14.496-11.584-29.664-17.824-1.664-22.112-3.968-44.256-6.912-66.304 19.136 9.568 31.488 16 37.088 19.296 5.952 3.616 10.4 5.792 13.344 6.432 2.656-0.672 4.128-2.496 4.448-5.44zM220.672 255.552c-12.224 0.992-19.968 6.752-23.264 17.312 0 2.656 3.616 4.448 10.88 5.44 1.312-2.976 6.432-4.288 15.36-3.936 9.568-0.992 32.8 3.296 69.76 12.864 36.928 9.92 60.192 15.84 69.76 17.824 9.568 2.304 16.32 3.456 20.288 3.456 4.928-1.984 7.744-4.96 8.416-8.896-2.304-3.968-8.416-6.624-18.304-7.936-5.952 0.32-20.288-2.656-43.040-8.896 1.344-4.928 1.824-10.56 1.472-16.8-3.616-22.112-5.76-44.704-6.432-67.776-0.672-23.424 0.16-48.672 2.464-75.712-0.32-10.88 5.44-16.992 17.312-18.304 32.672-1.664 61.696 0.16 87.072 5.44 4.288 0 6.112 3.616 5.44 10.912-0.992 28.352-2.144 58.176-3.456 89.536 0.32 4.928 1.824 7.072 4.448 6.432 6.592-12.864 11.36-30.848 14.336-53.952 2.976-22.752 4.96-41.568 5.952-56.416-2.304-6.912-5.952-11.232-10.88-12.832-31.008-5.632-66.304-8.096-105.888-7.424-20.128 1.664-30.656 9.568-31.648 23.744-2.304 25.408-2.976 50.816-1.984 76.224 0.32 28.672 2.784 57.056 7.424 85.088 0.64 3.232 1.312 6.048 1.984 8.384-5.952-1.664-12.192-3.488-18.816-5.472-2.656-0.64-4.928-1.312-6.912-1.952 0.672-1.344 0.992-2.304 0.992-2.976-4.64-5.6-16.672-30.208-36.128-73.728-19.456-44.192-35.616-84.096-48.48-119.744-4.96 0-7.424 1.312-7.424 3.936 10.208 29.376 21.28 61.696 33.152 96.96 11.872 33.696 22.912 63.2 33.152 88.608-23.104-6.272-38.784-9.408-47.008-9.408zM359.2 362.432c-25.088-2.976-58.208-7.936-99.456-14.848-5.6 1.312-9.888 3.968-12.864 7.904-1.664 4.288 2.144 7.584 11.36 9.92 32.992 4.288 66.144 8.224 99.456 11.872 3.616 0.32 6.080-1.152 7.424-4.448 0.352-5.28-1.632-8.768-5.92-10.4zM962.336 65.568c-0.352-3.296-2.976-5.44-7.936-6.432-32.992-6.912-66.624-11.52-100.928-13.856-8.256 0-37.6 6.080-88.064 18.304-51.456 12.832-87.744 21.76-108.832 26.72-4.64 1.312-9.248 2.304-13.856 2.976-5.952-7.584-14.336-12.544-25.248-14.848-5.6 0.672-9.088 3.776-10.4 9.408 1.312 0.96 2.784 1.984 4.448 2.976 4.608 1.312 8.224 2.976 10.88 4.928-13.536 1.312-29.024 1.824-46.528 1.472-9.568 0.992-14.656 4.768-15.328 11.392 0.672 5.248 4.448 8.416 11.36 9.376 17.152 0.352 37.92-1.824 62.336-6.4 1.312 3.936 1.792 7.552 1.472 10.88 0.32 2.624-1.984 9.568-6.944 20.768-4.288 10.88-6.432 17.472-6.432 19.776 0.992 6.944 3.136 13.024 6.432 18.304 2.976 5.28 4.448 10.048 4.448 14.336-0.992 3.968-6.272 7.744-15.84 11.392-9.568 3.968-18.144 6.912-25.728 8.896-2.304 2.304-3.616 5.76-3.968 10.4 0.32 1.984 2.144 3.456 5.44 4.448 11.872-2.304 24.736-6.624 38.592-12.864 13.856-6.592 21.12-13.856 21.792-21.76-0.672-8.896-2.816-16-6.432-21.28-3.648-4.928-5.6-9.056-5.952-12.384-0.32-3.296 1.312-9.376 4.96-18.272 3.296-8.896 5.12-15.2 5.44-18.816 0-6.592-0.512-12.224-1.472-16.8 5.952-1.984 12.032-3.648 18.304-4.96 40.224-11.232 100.096-23.904 179.584-38.080 32.992 0.672 68.096 2.304 105.376 4.96 4.384 0 7.36-1.664 9.024-4.96zM662.976 287.232c-2.656 0.32-4.448 1.664-5.44 3.968-8.576 9.888-17.472 18.784-26.72 26.72-8.576 7.904-16.832 14.336-24.736 19.296-1.984 1.632-3.328 3.968-3.968 6.912 0.32 4.608 2.816 7.264 7.424 7.936 4.288 0 7.744-0.992 10.4-2.976 5.28-2.656 12.032-8.256 20.288-16.832 7.904-8.256 14.496-16 19.776-23.264 5.28-6.944 7.744-12.544 7.424-16.832-0.32-2.944-1.792-4.608-4.448-4.928zM801.024 413.376c-4.288-8.896-10.88-20.288-19.808-34.144 24.736-14.848 59.36-32.672 103.904-53.44l47.488-18.304c0.672-1.344 1.152-2.976 1.472-4.96-1.344-2.304-2.816-3.648-4.448-3.968-13.536 1.312-31.168 5.28-52.928 11.872-15.2 2.976-49.664 21.76-103.392 56.416-8.256-13.216-17.984-27.712-29.216-43.552-5.952-8.896-11.552-16.832-16.8-23.744 2.976-2.304 7.264-3.296 12.864-2.976 5.952-0.672 20.448 1.984 43.552 7.936 23.392 5.6 38.080 9.056 44.032 10.4 5.952 1.312 10.208 1.984 12.864 1.984 4.96-1.984 7.744-4.928 8.416-8.896-2.304-3.968-8.416-6.592-18.304-7.904-3.328 0.32-11.552-1.344-24.736-4.96 0.992-0.32 1.824-0.832 2.496-1.472 5.6-4.96 9.248-10.56 10.88-16.832-1.984-4.608-3.136-9.056-3.456-13.344-0.32-1.632-0.672-3.616-0.992-5.952 7.936 2.304 16.512 4.64 25.728 6.944 8.576 2.656 15.008 5.6 19.296 8.896 6.912-1.984 10.208-5.12 9.888-9.408 0.32-4.64-2.656-7.424-8.896-8.416-16.16-3.968-32-8.416-47.488-13.344-1.312-13.216-2.304-31.488-2.976-54.912-0.992-39.584-1.312-72.416-0.992-98.464-1.664-6.24-5.76-9.408-12.352-9.408-8.256 0.992-24.736 15.68-49.472 44.064-1.664 3.616-0.16 5.44 4.448 5.44 15.84-11.552 27.36-18.816 34.656-21.792 2.976 0.352 4.448 2.464 4.448 6.432 0.992 25.728 1.632 51.456 1.984 77.184 0.32 17.152 0.512 32.32 0.512 45.504-32-10.24-63.84-22.112-95.488-35.616-3.968 0-8.064 1.824-12.352 5.44-0.672 3.296 0.992 5.76 4.928 7.424 13.856 9.568 48.32 22.272 103.424 38.080 0.32 9.568 0.48 17.984 0.48 25.248-1.664 5.6-4.448 10.048-8.416 13.344h-0.992c-25.088-6.592-41.088-10.048-48-10.4-8.256 0.672-14.176 3.616-17.824 8.896-16.832-22.752-30.016-38.080-39.584-46.016-14.176-11.552-22.112-17.984-23.744-19.296-2.976 0-4.64 1.152-4.96 3.456 1.664 1.664 8.256 8.064 19.808 19.296 10.88 11.552 30.176 38.592 57.888 81.152 11.872 19.136 21.6 35.456 29.184 48.992-2.976 1.984-6.112 3.968-9.408 5.952-3.968 4.288-3.296 8.576 1.984 12.864 4.288 0.672 7.936-0.16 10.88-2.464 1.312-0.992 2.464-1.824 3.456-2.464 6.272 11.2 10.56 20.288 12.864 27.2 2.304 5.952 5.44 9.248 9.376 9.92 7.904-1.984 12.512-6.624 13.824-13.888zM773.344 204.096c-1.664-2.976-7.776-10.4-18.304-22.272-10.88-12.224-20.64-23.104-29.184-32.672-8.576-9.568-15.84-16.512-21.792-20.768-5.28-4.928-10.72-8.096-16.32-9.408-2.656 0.32-4.288 1.504-4.928 3.456 9.888 7.904 19.456 17.632 28.672 29.184 9.248 12.192 16.992 22.4 23.264 30.656 6.24 8.608 10.56 15.68 12.864 21.312 1.984 3.968 3.456 7.264 4.448 9.888 0.672 2.304 2.304 3.616 4.96 3.968 5.6-0.672 9.728-2.304 12.352-4.96 2.304-2.944 3.616-5.76 3.968-8.384zM890.592 139.776c-5.6 0.672-8.896 2.976-9.888 6.944-1.664 7.264-6.272 15.168-13.856 23.712-7.264 8.608-13.024 13.888-17.312 15.872-3.968 2.624-6.592 5.088-7.936 7.392-1.312 1.984-1.984 4.448-1.984 7.424 0.992 3.296 2.784 4.928 5.44 4.928 2.656 0.32 7.264-1.664 13.856-5.952 6.24-4.288 14.016-12.352 23.264-24.224 9.248-11.552 13.696-21.28 13.344-29.184-0.32-3.296-1.984-5.6-4.928-6.912zM1228.992 395.584c4.288 7.936 14.016 12.032 29.184 12.384 6.592-1.984 9.728-5.792 9.408-11.392-9.888-21.12-27.712-40.576-53.44-58.368-1.984-0.992-3.296-1.824-3.968-2.464 3.296-2.656 5.952-6.112 7.904-10.4-0.672-2.976-1.152-6.272-1.472-9.92 21.12 7.936 72.064 18.464 152.896 31.68 2.656 3.968 6.592 7.936 11.872 11.872 9.248-0.992 16.48-3.296 21.76-6.912-0.32-9.248-2.144-15.52-5.44-18.816-6.912-9.888-11.36-25.888-13.344-48-1.664-21.44-2.656-48.16-2.976-80.16 0.32-39.904 2.144-71.744 5.44-95.488s4.96-39.072 4.96-46.016c-1.664-5.952-6.624-10.72-14.848-14.336-9.888 3.616-18.976 11.232-27.232 22.752-8.256 11.232-14.176 20.288-17.824 27.232 0 2.624 1.344 3.936 3.968 3.936 8.896-13.504 17.984-23.264 27.2-29.184 4.288 0 6.944 1.664 7.936 4.96-2.656 17.12-4.768 59.36-6.432 126.656 0.32 48.8 1.824 89.216 4.448 121.216-0.992 1.984-2.976 3.136-5.952 3.456-61.664-8.896-110.816-19.968-147.424-33.152 0-16.512 0.16-32.672 0.512-48.48 30.016 8.224 63.168 15.328 99.424 21.28 7.264-0.32 12.192-4.128 14.848-11.36-1.312-3.648-3.776-5.952-7.424-6.944-2.656 0.992-7.424 1.664-14.336 1.984-30.336-3.296-60.352-9.888-90.048-19.776h-2.464c0.32-16.832 0.672-33.344 0.992-49.472 30.016 9.888 63.328 18.304 99.936 25.248 7.584-0.32 12.864-4.448 15.84-12.384-1.344-3.968-3.968-6.432-7.936-7.424-2.304 1.312-7.424 2.112-15.328 2.496-31.008-4-61.856-12.032-92.544-24.224 0.32-22.784 0.672-45.728 0.992-68.768 38.272 11.52 81.152 21.76 128.64 30.656 8.256-0.672 13.856-4.928 16.832-12.832-1.664-4.32-4.448-6.944-8.416-7.936-2.656 0.992-8.096 1.664-16.32 1.984-40.256-4.96-79.84-14.688-118.752-29.184-0.672 0-1.152 0-1.472 0 0-1.984 0-3.968 0-5.952-1.344-4.288-4.64-8.416-9.888-12.384-5.6 1.984-8.736 7.392-9.408 16.32 0.32 136.576-0.832 217.536-3.456 242.944 0 1.312 0.16 2.496 0.512 3.456-16.8-10.88-30.016-18.656-39.584-23.264-13.536-6.624-24.896-10.72-34.144-12.384-1.664 0.32-2.464 1.312-2.464 2.976 20.448 11.872 43.712 27.040 69.76 45.504 26.688 18.144 43.040 34.656 48.96 49.472-1.312 3.616-4.608 5.92-9.888 6.912zM1687.648 71.008c-2.304 0-4.448 0.512-6.432 1.504v-1.504c-0.96-7.264-3.776-11.52-8.416-12.832-3.296 0.32-5.44 4.128-6.432 11.36-3.296 16.8-9.376 54.752-18.272 113.792-8.896 58.048-15.84 92.672-20.768 103.904 0 4.288 1.824 7.104 5.44 8.416 12.544-0.352 20.128-5.6 22.752-15.84 0-2.656 0.16-4.928 0.512-6.912 26.72 2.656 61.504 6.592 104.416 11.872l1.984 67.296c-0.992 11.872-5.28 19.456-12.864 22.752 0.672 6.272 4.128 9.888 10.4 10.88 11.232 0 18.784-5.12 22.752-15.328l-4.448-83.136c49.12 6.272 94.304 13.856 135.552 22.752 6.912-2.304 11.872-6.112 14.848-11.36-6.272-11.552-11.712-26.56-16.352-45.024-4.928-18.464-13.536-80.128-25.728-185.056-2.976-6.24-7.744-9.408-14.336-9.408-5.952 1.984-8.416 7.424-7.424 16.352 0.992 5.952 1.824 11.68 2.496 17.312-63.392-2.976-123.264-10.24-179.68-21.792zM1657.984 255.552c1.664-18.784 3.968-41.728 6.944-68.768 17.152 5.6 44.032 10.72 80.672 15.328 4.608 0.672 8.896 1.152 12.832 1.472l1.504 64.8c-35.968-4.96-68.288-9.568-96.96-13.856-2.048 0.032-3.68 0.352-4.992 1.024zM1755.424 100.192l2.464 87.104c-29.664-4.288-58.528-9.728-86.56-16.352-1.984 0-3.456 0.352-4.48 0.992 3.616-31.328 7.584-59.68 11.872-85.088 17.184 4.608 42.752 9.056 76.704 13.344zM1777.216 270.88l-2.976-65.312c34.304 4.288 63.328 7.264 87.104 8.896 5.952-1.664 9.568-4.64 10.88-8.896-1.664-4.96-4.64-7.776-8.896-8.416-31.328-1.312-61.344-3.968-90.048-7.936l-4.448-87.552c40.224 4.928 73.728 8.256 100.448 9.92 0.32 0 0.672-0.192 0.992-0.512 5.6 38.24 10.016 69.28 13.344 93.024 4.288 31.648 7.744 55.904 10.368 72.704-0.32 7.584-4.768 10.56-13.344 8.896-17.152-2.656-48.8-7.264-95.008-13.856-2.976-0.288-5.792-0.608-8.416-0.96zM2172.064 251.104c-3.616-3.296-7.424-6.624-11.36-9.888-26.4-24.416-47.328-39.104-62.848-44.032l-3.968 2.496c18.816 12.192 38.592 29.344 59.36 51.456 21.792 22.432 41.888 47.808 60.384 76.192 1.984 4.64 4.608 7.584 7.904 8.896 3.968-0.992 7.264-6.112 9.92-15.328-0.672-3.328-6.112-11.552-16.352-24.736-7.264-8.576-17.664-19.616-31.168-33.152 7.264-4.288 10.528-8.736 9.888-13.344-0.96-56.736-6.4-113.152-16.32-169.216-0.992-4.288-2.976-6.944-5.952-7.904-2.976 0.32-4.64 2.304-4.928 5.952 4.928 53.088 7.552 105.888 7.904 158.336 0 5.536-0.832 10.336-2.464 14.272zM2123.072 307.008l-4.448 2.464c10.88 7.264 22.592 17.824 35.136 31.68 12.864 13.856 24.736 29.184 35.616 46.016 1.984 4.608 4.64 7.584 7.904 8.896 3.616-0.992 7.104-6.112 10.4-15.328-0.352-1.984-3.808-6.912-10.4-14.848-6.592-7.584-18.112-18.464-34.624-32.672-16.512-14.496-29.696-23.232-39.584-26.208zM2284.864 100.672c-0.352 1.664 0.96 2.976 3.936 3.968 35.968-20.768 62.848-32.672 80.672-35.616 2.624 0.352 4.128 2.304 4.48 5.952l-7.456 200.864c-0.352 1.984-0.992 3.616-1.984 4.96-38.944-8.576-77.856-18.496-116.768-29.696-4.288 0-8.736 1.984-13.344 5.952-0.672 3.616 1.152 6.272 5.44 7.904 21.792 10.56 85.248 25.568 190.464 45.024 11.552 2.304 20.32 5.12 26.24 8.416 7.552-2.304 11.2-5.76 10.88-10.4 0.32-4.928-2.976-7.904-9.92-8.896-24.416-4.288-48.96-9.056-73.728-14.336 0.992-1.984 1.824-4.128 2.464-6.432l7.424-195.936c0.32-8.224 2.304-18.112 5.952-29.664-1.312-8.608-6.272-13.376-14.848-14.368-25.376 6.272-58.688 27.040-99.904 62.304zM2400.64 382.208c-26.368-4.64-61.344-12.544-104.864-23.744-5.632 1.312-10.048 3.968-13.376 7.936-1.632 4.608 2.304 8.064 11.872 10.4 34.656 8.576 69.44 16.16 104.416 22.752 4.288 0.32 7.264-1.472 8.896-5.44 0.32-5.952-1.984-9.92-6.944-11.904z" horiz-adv-x="2545" />
<glyph unicode="&#xe602;" d="M432.264 464.861c-40.221 0-72.061-33.516-72.061-73.737 0-6.702 1.675-15.082 3.351-21.786 3.351-15.082 41.896-115.632 56.978-157.528-6.702-3.351-13.408-10.055-13.408-18.434 0-11.731 10.055-20.11 21.786-20.11 10.055 0 20.11 8.38 20.11 20.11 0 0 0 0-1.675 0 0 3.351 0 5.027 0 6.702 0 0-1.675 1.675-1.675 1.675 0 1.675-1.675 1.675-1.675 3.351-1.675 3.351-5.027 5.027-8.38 6.702 18.434 40.221 56.978 132.392 65.358 154.177 3.351 8.38 5.027 16.758 5.027 25.137 0 40.22-33.517 73.737-73.737 73.737zM433.938 345.878c-25.137 0-45.247 20.11-45.247 45.247 0 26.813 20.11 46.923 45.247 46.923 26.813 0 46.923-20.11 46.923-46.923 0-25.138-20.11-45.247-46.923-45.247zM370.258 392.8c0 28.49 15.082 43.572 63.681 43.572-13.408 0 1.675-15.082 1.675-43.572 0-8.38-15.082-23.462-1.675-23.462-48.599 0-63.682 15.082-63.682 23.462zM18.333 309.009c3.352 1.675 83.791 16.758 145.798-26.814v93.846l-145.798-15.082zM18.333-1.018l145.798 16.758v93.846l-145.798-10.055zM18.333 293.926v-175.963l145.798 10.055v134.066c-58.655 48.599-145.798 31.84-145.798 31.84zM184.24 240.301v-113.957l1.675 3.351 144.122-30.166v63.682c-5.027 0-10.055 0-15.082 0-62.005 0-82.115 20.11-130.714 77.088zM184.24 15.739l145.798-48.599v112.281l-145.798 30.166zM184.24 263.762c3.351-1.675 5.027-3.351 6.702-6.702h1.675c55.303-65.358 68.71-82.115 137.418-78.763v150.825l-145.798 46.923zM348.471-32.861l145.798 31.839v108.928l-145.798-28.49zM474.158 193.377c0-25.137-20.11-45.247-45.247-45.247-16.758 0-33.517 11.731-40.221 26.813l-36.867-10.055c-1.675 0-1.675 0-3.351 0v-65.358l145.798 28.49v75.413l-20.11-5.027c0-1.675 0-3.351 0-5.027zM469.132 213.487l23.462 6.702h1.675v72.061c-3.351-5.027-28.49-73.737-28.49-73.737 1.675-1.675 3.351-3.351 3.351-5.027zM385.339 193.377c0 10.055 3.351 18.434 8.38 25.137 0 0-36.867 85.467-45.247 98.875v-137.418l36.867 10.055c0 1.675 0 1.675 0 3.351z" />
<glyph unicode="&#xe603;" d="M446 208l18 140-132 50-147-70-138 58 20-153-4-23h1l-15-129 145-27 139 27 132-31zM194 70l-128 24 15 129 1 9-16 129 119-50 148 70 114-43-17-130 17-138-114 26zM414 130c0-8-7-15-15-15s-15 7-15 15c0 4 1 7 3 10-11 8-24 18-28 31-6 17 14 50-6 62-18 10-48-2-59 19-1-1-3-1-5-1 0 0-1 0-1 0-3-5-5-10-6-16-1-8 2-16 1-24s-4-17-13-20c-14-4-53 7-52-14 0-2-1-3-2-4-2-7-8-11-15-11-8 0-15 6-15 15 0 5 3 10 8 13-1 9-1 18-2 28-1 13-10 21-21 27-12 6-24 11-31 22-1-1-3-1-5-1-9 0-15 6-15 15 0 8 6 15 15 15 8 0 15-7 15-15 0-3-1-5-2-7 7-15 29-18 41-29 17-15 11-34 15-54 2 0 4-1 6-2 7 14 29 10 45 11 5 0 15-1 17 6 2 9-1 18 0 26 0 9 2 17 6 24-2 2-4 6-4 10 0 8 7 15 15 15 9 0 15-7 15-15 0-3 0-5-2-7 9-21 48-5 63-23 13-18 1-36 2-55 1-15 17-27 30-36 1 0 1 0 2 0 8 0 15-7 15-15z" />
<glyph unicode="&#xe604;" d="M469 377h-102c5 4 9 8 12 12 6 11 4 24-5 40l-1 1c-11 12-22 18-34 18-23 0-41-20-59-40-10-11-19-21-27-26-8 5-17 15-27 26-18 20-37 40-59 40-12 0-24-6-34-18l-1-1c-9-16-11-29-5-40 2-4 6-8 12-12h-96v-91h24v-286h378v286h24zM289 399c16 18 33 37 50 37 8 0 16-5 24-14 7-11 8-20 5-27-6-9-23-16-50-18h-45c-2 0-3 1-5 1 7 6 14 13 21 21zM283 298h-55v62h55zM138 395c-4 7-2 16 5 27 8 9 16 14 24 14 17 0 33-19 50-37 7-8 14-15 20-21-1 0-3-1-4-1h-46c-26 2-44 9-49 18zM56 365h131c7-1 14-1 21-1 3 0 5 0 7 0v-66h-159zM80 12v273h135v-273zM228 12v273h55v-273zM432 12h-136v273h136zM456 298h-160v66c0 0 1 0 1 0 8 0 15 0 22 1h137z" />
<glyph unicode="&#xe605;" d="M504 164c0 1 0 2 0 2s0 1 0 1v10c0 2 0 4-1 5-1 3-3 5-6 6-11 4-20 10-23 21-3 12 8 21 17 26 4 0 8 3 8 9-1 25-2 66-4 91 4 6 2 16-8 15-2 1-5 1-7 0-142-9-305 8-447 8-3 0-6-1-7-3-2-2-3-4-3-7 0-24-1-64-3-88 0-2 1-4 1-5 1-2 2-4 5-6 23-16 26-44 0-59-1 0-1 0-1 0-4-1-6-4-6-10 1-29 2-63 3-93 0-1 1-3 2-4 0-5 4-8 9-8 147 0 314 4 461 5 1 0 2 0 3 0 5 0 10 4 9 10-2 23-3 51-2 74zM42 95c-1 25-1 55-2 80 34 22 31 63 1 88 1 20 2 55 2 74 137-1 295-16 432-8 1-21 3-57 3-78-15-9-26-23-24-42 1-18 15-30 30-38v-4c0-1 0-1 0-2 0 0 0 0 0-1-1-19-1-44 1-64-141-1-302-5-443-5zM448 165c0 4-1 6-3 8-1 0-1 1-2 2-24 18-21 46 0 64 1 0 1 0 1 1 0 0 0 0 1 0 0 0 0 1 0 1 2 1 2 4 2 6-1 13-2 41-3 54 0 1 0 1-1 2 0 5-3 10-10 10-109-8-239 7-349 7-7 0-10-7-9-13-1-1-1-2-1-3 0-10 0-36-1-47 0 0 0-1 0-1 0-2 0-4 2-6 13-23 9-46-7-66-3-2-4-4-4-8 0-15 0-36-1-52 0-1 0-2 1-3 0-5 3-10 9-10 115 4 251-1 366 4 2 0 4 1 6 2 4 2 6 6 5 12-2 10-3 26-2 36zM84 132c0 12 0 29 0 41 20 25 25 55 10 84 1 9 1 33 1 42 102-1 226-13 329-7 1-9 1-33 2-41-28-26-26-65 1-90 0-7 1-19 1-26-108-4-236 0-344-3zM261 258v-92c0-13 21-13 21 0v92c0 13-21 13-21 0z" />
<glyph unicode="&#xe606;" d="M263 428v24h-14v-24h-186v-284h386v284zM435 158h-358v256h358zM261 129h-14v-63l-69-63 9-11 67 61 71-61 9 11-73 63zM138 279c7 0 12 4 16 8l58-22c-1-1-1-3-1-4 0-10 9-18 19-18s18 8 18 18c0 4-1 8-3 11l37 40c3-2 6-3 10-3 10 0 18 8 18 18 0 0 0 1 0 1l55 11c3-7 10-12 17-12 10 0 19 8 19 18 0 11-9 19-19 19s-18-8-18-18l-56-11c-3 6-9 10-16 10-10 0-18-8-18-18 0-4 1-7 3-10l-37-40c-3 1-7 2-10 2-7 0-12-3-16-8l-58 23c1 1 1 2 1 4 0 10-8 18-19 18-10 0-18-8-18-18s8-19 18-19zM382 357c7 0 12-5 12-12 0-6-5-11-12-11-4 0-8 3-9 6l10 2c2 0 3 2 3 4-1 2-2 3-4 3l-11-2c1 5 6 10 11 10zM292 316c-2 0-4 0-6 1l7 8 10 2c0-6-5-11-11-11zM292 338c4 0 7-2 9-4l-11-3-8-8c-1 1-1 3-1 4 0 6 5 11 11 11zM230 272c1 0 3 0 5-1l-6-6-8 4c2 2 5 3 9 3zM218 262l13-5 9 9c0-1 1-3 1-5 0-6-5-11-11-11-7 0-12 5-12 11 0 1 0 1 0 1zM138 309c7 0 12-5 12-11 0-1 0-1 0-2l-11 5c-1 0-3-1-4-2-1-2 0-4 2-5l10-4c-2-2-5-4-9-4-6 0-11 5-11 12 0 6 5 11 11 11z" />
<glyph unicode="&#xe607;" d="M70.016 316.16h372c9.184 0 16.64-7.424 16.64-16.512v-75.328c0-9.312-7.424-16.704-16.64-16.704h-1.888v-182.112c0-9.184-7.424-16.64-16.512-16.64h-335.232c-9.184 0-16.512 7.424-16.512 16.64v182.112h-1.856c-9.216 0-16.64 7.392-16.64 16.704v75.328c0 9.088 7.424 16.512 16.64 16.512v0zM288.16 42.112v0 165.504h-64.352v-165.472l64.352-0.032zM203.904 42.112v0 165.504h-98.88v-165.472l98.88-0.032zM307.968 207.616v0-165.472h99.040v165.472h-99.040zM256.928 415.872v0c8 0 15.552-2.496 21.92-6.24 3.072 8.832 8.032 16.736 14.4 23.232 10.848 10.72 25.44 17.344 41.76 17.344 16.512 0 31.328-6.592 41.824-17.344 10.88-10.72 17.568-25.568 17.568-42.080 0-16.256-6.688-31.104-17.568-41.728-10.496-10.624-25.312-17.44-41.824-17.44v0c-52.608 0-105.408 0-157.984 0v0c-16.512 0-31.328 6.848-41.952 17.44-10.848 10.592-17.472 25.44-17.472 41.696 0 16.512 6.624 31.36 17.44 42.080 10.624 10.72 25.44 17.344 41.952 17.344 16.256 0 31.136-6.592 41.728-17.344 6.592-6.72 11.776-14.976 14.624-24.16 6.72 4.608 14.848 7.2 23.584 7.2v0zM272.512 389.472v0c-4.032 3.872-9.568 6.496-15.584 6.496-6.144 0-11.808-2.592-15.936-6.496-3.872-4.128-6.336-9.536-6.336-15.68s2.464-11.68 6.496-15.552c4-4.256 9.664-6.592 15.808-6.592 5.76 0 11.072 2.24 15.072 5.888l0.48 0.704c4 3.872 6.336 9.44 6.336 15.552s-2.336 11.552-6.336 15.68v0zM295.84 389.824v0c1.888-4.96 3.072-10.368 3.072-16.032 0-8.256-2.368-15.808-6.368-22.144h42.464c11.072 0 20.928 4.352 27.808 11.328 7.328 7.296 11.552 16.96 11.552 27.808 0 11.072-4.256 20.992-11.552 27.936-6.88 7.2-16.736 11.552-27.808 11.552-10.88 0-20.672-4.352-27.616-11.552-7.2-6.944-11.52-16.864-11.52-27.936v-0.96h-0.032zM220.992 351.648v0c-3.904 6.368-6.272 13.888-6.272 22.144 0 4.704 0.704 9.184 2.112 13.44-0.48 1.184-0.704 2.368-0.704 3.52 0 11.072-4.352 20.992-11.552 27.936-7.040 7.2-16.704 11.552-27.552 11.552s-20.864-4.352-27.808-11.552c-7.328-6.944-11.552-16.832-11.552-27.936 0-10.848 4.224-20.512 11.552-27.808 6.944-6.944 16.96-11.328 27.808-11.328l43.968 0.032zM425.504 282.912v0h-338.784v-42.080c121.632 0 216.864 0 338.752 0v42.080h0.032z" />
<glyph unicode="&#xe608;" d="M100 297v-53c0-2-1-17 24-17h36v73h-57c-2 0-3-1-3-3zM163 227h55v73h-55zM369 171c-10 0-18-8-18-18s8-18 18-18c10 0 18 8 18 18s-8 18-18 18zM221 227h54v73h-54zM256 480c-141 0-256-114-256-256 0-141 115-256 256-256 142 0 256 115 256 256 0 142-114 256-256 256zM145 124c-16 0-28 13-28 29s12 28 28 28c15 0 28-12 28-28s-13-29-28-29zM369 124c-15 0-28 13-28 29s13 28 28 28c16 0 28-12 28-28s-12-29-28-29zM435 147h-34c0 2 0 3 0 5 0 17-14 32-31 32s-31-15-31-32c0-2 0-3 0-5h-163c1 2 1 3 1 5 0 17-14 32-31 32-18 0-32-15-32-32 0-2 0-3 1-5h-8c-17 0-30 14-30 31v108c0 16 13 30 30 30h299c16 0 30-14 30-30v-139zM278 227h60v73h-60zM145 171c-10 0-18-8-18-18s8-18 18-18c9 0 17 8 17 18s-8 18-17 18zM403 301h-29v-72c0 0 2-13 16-17 15-3 28-2 28-2v75c0 8-7 16-15 16zM362 300h-21v-73h21c1 0 3 1 3 3v67c0 2-2 3-3 3z" />
<glyph unicode="&#xe609;" d="M0 416.032v-64h512v64h-512zM0 192.032h512v64h-512v-64zM0 32.064h512v64.032h-512v-64.032z" />
<glyph unicode="&#xe60a;" d="M102 29v77h410v-77zM102 260h410v-77h-410zM102 413h410v-77h-410zM77 336h-77v77h77zM77 183h-77v77h77zM77 29h-77v77h77z" />
<glyph unicode="&#xe60b;" d="M512 388v92c-154-47-229-149-225-307v-205h220v237h-113c-3 76 36 137 118 183zM225 388v92c-153-47-228-149-225-307v-205h220v237h-112c-4 76 35 137 117 183z" />
<glyph unicode="&#xe60c;" d="M0.224 80.896v-86.976c153.504 44.384 228.576 141.6 225.12 291.616v194.464h-220v-225.12h112.576c3.424-71.616-35.84-129.6-117.696-173.984v0zM286.72 80.896v-86.976c153.472 44.384 228.576 141.6 225.152 291.616v194.464h-220.032v-225.12h112.576c3.424-71.616-35.808-129.6-117.696-173.984v0z" />
<glyph unicode="&#xe60d;" d="M188 224l205-204v-51l-256 255 256 256v-51z" />
<glyph unicode="&#xe60e;" d="M324 224l-205 204v51l256-255-256-256v51z" />
<glyph unicode="&#xe60f;" d="M256 292l-204-205h-51l255 256 256-256h-51z" />
<glyph unicode="&#xe610;" d="M256 138l205 205h51l-256-256-255 256h51z" />
<glyph unicode="&#xe611;" d="M192 480l-1-1h-190v-190l-1-1 320-320 192 192zM103 390c-9-9-24-9-33 0-8 9-8 23 0 32 9 9 24 9 33 0s9-23 0-32z" />
<glyph unicode="&#xe612;" d="M263 480c0 0-5-33 5-55 15-31 108-116 103-163-5-48-20-69-20-69s40 15 49 67c9 52-2 75-2 75s87-61 48-177c-20-60-77-63-147-120-72-58-62-68-62-68s-42 40-18 114c25 73 45 69 49 100 3 29-1 17-5 47-48-90-65-42-113-111-11-16-4-55-4-55s-82 38-85 119c-1 42 33 52 55 77 14 17 47 64 47 64s13-14 12-37c-1-17-11-35-11-35s53 15 61 46c8 31-28 57-19 100s57 81 57 81z" />
<glyph unicode="&#xe613;" d="M512 190v50h-100v22h84v51h-84v20h84v50h-84v20h98v51h-98v24h-86v-24h-36c2 3 3 7 5 13 3 6 4 10 4 13h-82c-13-43-35-73-64-92v-57c3 1 7 3 13 4 8 3 13 5 16 7v-152zM38 416h-34v-59h34v-119c-12-3-25-4-38-4v-73c13 3 26 5 38 7v-110c1-17-6-26-20-24h-9v-55h46c48 0 71 23 71 70v143c9 5 20 9 31 13v60c-11-5-20-7-26-7-2-1-3-2-5-2v101h22v59h-22v64h-88zM426 54c1-18-7-26-25-24h-38v-51h85c44-1 65 20 64 64v79h-69l9 50h-290v-57h64c-3-41-31-70-84-88v-59c109 23 168 73 175 147h44l-6-48h71zM326 262v-22h-62v22zM326 333v-20h-62v20zM326 403v-20h-62v20z" />
<glyph unicode="&#xe614;" d="M21 162h137c-9-66-60-112-153-138v-56c161 33 246 97 253 194h119v-96c2-19-7-29-25-29h-41v-58h78c60-1 90 27 89 85v160h-215v45h-101v-45h-141zM313 449v31h-114v-31h-194v-103h93v43h318v-43h94v103zM0 253c131-5 212 35 242 118h-100c-16-45-63-68-142-69zM370 371h-100c30-83 111-123 242-118v49c-79 1-127 24-142 69z" />
<glyph unicode="&#xe615;" d="M79 138v-74c-24-3-50-4-79-4v-63c62 3 120 11 174 23 0-3 1-9 3-16 0-7 0-13 0-16h59c-2 45-10 90-23 137h-55c0-2 1-5 3-9 4-18 7-32 9-43-3 0-8 0-14-2-4 0-7 0-9 0v67c46-3 67 20 64 69v206h-64v67h-68v-67h-68v-275zM392 261h-48c-18-2-26 7-25 25v89h-86v-114c-1-43 18-64 59-63h127v-138c1-23-8-33-29-31h-62v-61h98c60-3 89 25 86 83v210h-30v199h-253v-63h163zM229 149v-62h176v62zM79 355v-157h-16v157zM158 219c0-12-3-19-11-21v157h11z" />
<glyph unicode="&#xe616;" d="M77 403v-46h-66v-387h154c51-1 76 23 74 73v314h-65v46h76v56h-250v-56zM424-32c51-1 76 24 75 75v143h-229v-218zM512 284h-79v82h68v64h-68v50h-77v-50h-20c2 12 2 23 2 34h-63c-2-50-10-87-25-111v-57c36 15 59 38 71 70h35v-82h-101v-63h257zM422 123v-71c1-16-7-25-24-25h-51v96zM121 302h11v-106c-2-37 14-54 46-53h7v-27h-119v20c38 13 56 40 55 82zM66 20v41h119v-13c0-19-10-28-29-28zM185 182c-8 3-11 10-11 20v100h11zM77 302v-88c1-17-2-30-11-39v127zM132 403v-46h-11v46z" />
<glyph unicode="&#xe617;" d="M52 480l171-267h-66v-24h87v-56h-87v-24h87v-142h27v142h86v24h-86v56h86v24h-66l171 267h-32l-172-269-171 269z" />
<glyph unicode="&#xe618;" d="M257.376 464c131.552 0 238.624-107.040 238.624-238.624 0-131.552-107.072-238.592-238.624-238.592s-238.592 107.040-238.592 238.592c0 131.552 107.040 238.624 238.592 238.624zM257.376 480c-140.608 0-254.592-113.984-254.592-254.592 0-140.672 113.984-254.592 254.592-254.592 140.64 0 254.624 113.984 254.624 254.592s-113.984 254.592-254.624 254.592v0z" />
<glyph unicode="&#xe619;" d="M216.352 113.376l-90.976 97.472 15.52 16.352 75.424-81.152 200.32 182.080 15.488-16.384-215.776-198.368zM255.456 464c132 0 239.424-107.424 239.424-239.456s-107.392-239.456-239.424-239.456c-132.032 0-239.456 107.424-239.456 239.456s107.424 239.456 239.456 239.456zM255.456 480c-140.864 0-255.456-114.624-255.456-255.456 0-140.864 114.592-255.456 255.456-255.456s255.424 114.592 255.424 255.456c0 140.832-114.56 255.456-255.424 255.456v0z" />
<glyph unicode="&#xe61a;" d="M255.424 480.064c-141.28 0-255.808-114.528-255.808-255.808 0-141.248 114.528-255.808 255.808-255.808s255.808 114.56 255.808 255.808c0 141.28-114.56 255.808-255.808 255.808zM381.472 116.256l-17.984-17.984-108.064 108-108.032-108.032-17.984 17.984 108.032 108.032-108.064 108.064 17.984 17.984 108.032-108.032 108.032 108.032 17.984-17.984-107.968-108.032 108.032-108.032z" />
<glyph unicode="&#xe61b;" d="M257.376 464c131.584 0 238.624-107.040 238.624-238.624s-107.040-238.592-238.624-238.592c-131.552 0-238.592 107.040-238.592 238.592s107.040 238.624 238.592 238.624zM257.376 480c-140.608 0-254.592-113.984-254.592-254.592 0-140.64 113.984-254.592 254.592-254.592s254.624 113.984 254.624 254.592c0 140.608-113.984 254.592-254.624 254.592v0zM244.736 357.536v-198.016h28.288v198.016h-28.288zM248.928 127.104c-2.784-2.72-4.16-6.048-4.16-10.016 0-4 1.376-7.328 4.16-10.016 2.752-2.72 6.080-4.096 9.984-4.096 3.872 0 7.2 1.376 9.984 4.096 2.784 2.688 4.192 6.016 4.192 10.016 0 3.968-1.376 7.328-4.192 10.016-2.752 2.752-6.112 4.128-9.984 4.128-3.904 0-7.232-1.376-9.984-4.128z" />
<glyph unicode="&#xe61c;" d="M256 480c-141.376 0-256-114.624-256-256s114.624-256 256-256c141.344 0 256 114.624 256 256s-114.624 256-256 256zM272.992 151.744h-14.528v119.808h-42.624v10.368c6.304 0.16 12 0.48 17.152 1.056 5.184 0.544 9.664 1.792 13.376 3.776 3.776 1.984 6.912 5.024 9.44 9.12 2.528 4.064 4.352 9.792 5.44 17.152h11.776v-161.28z" />
<glyph unicode="&#xe61d;" d="M256 480c-141.376 0-256-114.624-256-256s114.624-256 256-256c141.344 0 256 114.624 256 256s-114.624 256-256 256zM305.44 153.952h-105.376c0.128 7.904 1.504 14.88 4.096 20.992s6.016 11.552 10.304 16.416 9.056 9.312 14.432 13.344c5.28 4.064 10.784 7.936 16.416 11.68 5.632 3.712 11.264 7.52 16.8 11.392 5.568 3.904 10.56 8.032 14.944 12.448 4.448 4.416 7.744 8.928 9.952 13.6 2.24 4.64 3.36 10.144 3.36 16.544 0 5.184-0.992 9.792-2.88 13.824-1.92 4-4.48 7.424-7.808 10.24-3.264 2.816-7.072 4.96-11.36 6.4-4.384 1.44-8.992 2.176-13.888 2.176-6.528 0-12.128-1.216-16.768-3.648s-8.416-5.728-11.328-9.824c-2.88-4.096-4.992-8.832-6.272-14.144-1.312-5.344-1.888-10.976-1.728-16.896h-14.4c-0.128 8.224 0.8 15.776 2.848 22.72 2.048 6.912 5.216 12.896 9.472 17.92s9.664 8.928 16.128 11.744 14.016 4.224 22.72 4.224c7.008 0 13.568-0.96 19.552-2.848 6.016-1.92 11.264-4.704 15.744-8.448s8-8.416 10.56-14.016c2.496-5.632 3.744-12.192 3.744-19.648 0-6.688-1.12-12.768-3.328-18.272-2.112-5.472-5.12-10.528-8.864-15.072s-8-8.768-12.8-12.672c-4.768-3.872-9.824-7.488-15.2-10.848-3.808-2.592-8.32-5.44-13.472-8.544-5.184-3.136-10.176-6.592-14.976-10.4s-9.024-7.968-12.704-12.416c-3.648-4.512-5.952-9.408-6.848-14.72h88.928v-13.248z" />
<glyph unicode="&#xe61e;" d="M256 480c-141.376 0-256-114.624-256-256s114.624-256 256-256c141.344 0 256 114.624 256 256s-114.624 256-256 256zM304.736 181.824c-2.944-5.952-6.816-10.88-11.744-14.944-4.928-4-10.688-7.040-17.28-9.056-6.56-1.984-13.44-3.008-20.608-3.008-8.064 0-15.488 1.184-22.272 3.552s-12.608 5.824-17.472 10.304c-4.832 4.512-8.512 10.016-10.976 16.576-2.432 6.56-3.392 14.112-2.784 22.656h14.112c-0.32-6.272 0.384-11.968 2.112-17.024 1.728-5.088 4.256-9.44 7.616-12.992s7.52-6.368 12.544-8.416c5.024-2.048 10.656-3.040 16.928-3.040 5.216 0 10.24 0.736 15.008 2.24s9.024 3.744 12.736 6.72c3.744 2.976 6.752 6.656 8.96 10.976 2.24 4.352 3.36 9.28 3.36 14.784 0 5.664-0.992 10.56-2.944 14.656-1.856 4.16-4.576 7.552-8 10.336-3.424 2.752-7.424 4.832-12 6.176-4.544 1.344-9.44 2.016-14.656 2.016h-11.872v11.84h11.872c3.584 0 7.296 0.576 11.072 1.696 3.808 1.12 7.264 2.816 10.304 5.152 3.072 2.304 5.568 5.28 7.488 8.832 1.92 3.584 2.912 7.84 2.912 12.768 0 5.216-0.864 9.664-2.688 13.344-1.76 3.648-4.224 6.72-7.36 9.184s-6.752 4.256-10.88 5.376-8.544 1.664-13.312 1.664c-5.824 0-10.976-0.96-15.456-2.912s-8.256-4.64-11.328-8.16c-3.040-3.52-5.344-7.712-6.816-12.544-1.504-4.864-2.176-10.176-2.016-16h-14.112c0 7.456 1.152 14.336 3.488 20.608 2.304 6.272 5.6 11.68 9.856 16.224 4.256 4.576 9.44 8.128 15.584 10.752s12.992 3.936 20.608 3.936c6.112 0 12.096-0.768 17.92-2.336 5.792-1.6 10.976-4 15.552-7.2 4.576-3.232 8.192-7.328 10.944-12.32 2.816-4.992 4.192-11.008 4.192-18.016 0-8.512-2.304-15.904-6.88-22.176s-11.104-10.464-19.584-12.576v-0.448c10.304-1.632 18.272-5.92 23.808-12.864 5.632-6.944 8.448-15.552 8.448-25.856 0-7.776-1.44-14.624-4.384-20.48z" />
<glyph unicode="&#xe61f;" d="M340 338h-95v-31h95zM256 481c-141 0-256-115-256-256 0-142 115-256 256-256 142 0 256 114 256 256 0 141-114 256-256 256zM385 216c-18-7-35-14-52-21 20-12 36-23 49-31l-13-19c-30 21-65 45-105 71l11 14c14-8 28-17 40-24 18 8 37 18 56 28zM224 177v179h136v-123h-20v7h-95v-71c14 6 32 13 52 22 0-7 1-14 2-21-17-7-35-14-52-23-5-2-10-5-15-9l-16 20c5 5 8 11 8 19zM158 361c9-11 22-28 38-51l-20-14c-14 23-26 41-36 53zM386 107c-53 0-104 0-154 1-30 1-52 11-64 32-8-7-19-19-33-36l-11 22c16 15 27 26 35 33v91h-33v20h53v-115c12-18 30-27 56-27 51-1 104-1 158 1-2-6-4-13-7-22zM340 289h-95v-31h95z" />
<glyph unicode="&#xe620;" d="M256 464c133 0 240-107 240-240 0-132-107-240-240-240-132 0-240 108-240 240 0 133 108 240 240 240zM256 480c-141 0-256-114-256-256 0-141 115-256 256-256 142 0 256 115 256 256 0 142-114 256-256 256zM239 372c-18 1-27-7-26-25v-218c-1-10 4-13 16-9 26 9 49 22 69 41 4 3 4 7 2 10-4 2-7 2-10-1-20-17-40-30-60-38-2-1-4 0-5 2v116h125c17 1 26 9 27 24v75c-1 15-10 23-26 23zM126 367c-3-2-3-5 0-8 17-21 28-43 34-65 2-5 5-6 9-5 4 2 5 5 4 10-8 22-20 44-37 66-3 4-7 5-10 2zM171 162v91c0 10-6 16-18 16h-34c-4 0-7-2-7-7 0-4 2-6 6-6h31c5 0 8-3 9-8v-92c-1-22-16-39-45-50-4-1-6-4-4-8s5-4 9-3c26 12 41 26 46 39 7-27 44-41 112-40h115c3 0 5 2 6 6-1 4-3 6-6 6h-112c-78-2-114 16-108 56zM261 226c-2-3-1-6 2-9 38-24 75-55 109-94 3-2 6-3 9-1 3 3 2 6-1 10-16 18-32 34-49 50 19 13 35 27 47 43 3 4 3 7 0 11-3 1-5 0-9-3-14-17-30-31-47-43-16 13-33 25-53 37-3 3-6 2-8-1zM225 347c1 10 6 14 15 13h108c11 0 16-5 15-16v-27h-138zM225 305h138v-29c1-8-4-12-13-12h-125z" />
<glyph unicode="&#xe621;" d="M338 344c0-6-4-10-14-10-9 0-14 4-14 10v12h-114v-12c0-6-5-11-14-11s-14 5-14 11v12h-57v-42h290v42h-63zM256 480c-141 0-256-115-256-256s115-256 256-256c141 0 256 115 256 256s-115 256-256 256zM415 90c0-6-5-11-11-11h-296c-6 0-11 5-11 11v269c0 6 5 11 11 11h60v17c0 6 5 11 14 11s14-5 14-11v-17h114v17c0 6 5 11 14 11 10 0 14-5 14-11v-17h66c6 0 11-5 11-11zM111 93h290v207h-290zM318 259h28v-28h-28zM318 204h28v-29h-28zM318 148h28v-28h-28zM249 259h28v-28h-28zM249 204h28v-29h-28zM249 148h28v-28h-28zM180 204h28v-29h-28zM180 148h28v-28h-28z" />
<glyph unicode="&#xe622;" d="M256 464c133 0 240-107 240-240 0-132-107-240-240-240-132 0-240 108-240 240 0 133 108 240 240 240zM256 480c-141 0-256-114-256-256 0-141 115-256 256-256 142 0 256 115 256 256 0 142-114 256-256 256zM384 315h-53v21c0 7-6 12-17 12s-17-5-17-12v-21h-66v21c0 7-5 12-16 12s-17-5-17-12v-21h-53c-7 0-13-5-13-13v-172c0-7 6-13 13-13h239c7 0 13 6 13 13v172c0 8-6 13-13 13zM380 134h-231v115h231zM380 266h-231v33h49v-3c0-8 6-13 17-13s16 5 16 13v3h66v-4c0-7 6-13 17-13s17 6 17 13v4h49v-33zM314 233h33v-17h-33zM314 200h33v-17h-33zM314 167h33v-17h-33zM248 233h33v-17h-33zM248 200h33v-17h-33zM248 167h33v-17h-33zM182 200h33v-17h-33zM182 167h33v-17h-33z" />
<glyph unicode="&#xe623;" d="M494.752 434.336h-105.92v28.384c0 9.568-7.168 17.28-22.144 17.28-14.944 0-22.816-7.68-22.816-17.28v-28.416h-183.744v28.416c0 9.6-7.648 17.28-22.4 17.28-14.72 0-22.4-7.68-22.4-17.28v-28.416h-96.928c-9.536 0-17.28-7.744-17.28-17.312v-430.592c0-9.6 7.744-17.28 17.28-17.28h476.352c9.536 0 17.248 7.68 17.248 17.28v430.624c0 9.568-7.712 17.312-17.248 17.312zM489.408-8.352h-465.664v331.968h465.664v-331.968zM489.408 346.144h-465.664v66.4l91.584 0.256v-19.584c0-9.536 7.648-17.28 22.4-17.28s22.4 7.712 22.4 17.28v19.584h183.744v-18.72c0-9.536 7.872-17.28 22.816-17.28 15.008 0 22.144 7.744 22.144 17.28v18.72l100.576-0.288v-66.368zM401.28 256.992h-45.024v-44.224h45.024v44.224zM401.28 168.736h-45.024v-44.96h45.024v44.96zM401.28 79.808h-45.024v-44.256h45.024v44.256zM289.856 256.992h-44.352v-44.224h44.352v44.224zM289.856 168.736h-44.352v-44.96h44.352v44.96zM289.856 79.808h-44.352v-44.256h44.352v44.256zM179.104 168.736h-44.32v-44.96h44.32v44.96zM179.104 79.808h-44.32v-44.256h44.32v44.256z" />
<glyph unicode="&#xe624;" d="M255 480c-141 0-256-114-256-256 0-141 115-256 256-256 142 0 256 115 256 256 0 142-114 256-256 256zM455 327l6-11-22-11c-2 3-4 7-5 11zM373 413l11-7-13-19c-3 3-6 5-10 7zM248 453h15v-28c-4 0-11 0-15 0zM158 424l10-20c-4-1-7-3-11-5l-10 20zM27 245h28c0-4 0-24 0-28h-28zM55 110l-5 11 26 13c2-3 4-7 6-11zM85 329l-20 13 6 10 20-13c-2-3-4-7-6-10zM137 24l-10 6 18 27c3-2 6-4 10-6zM263-4h-15v28c5 0 11 0 15 0zM353 12l-15 30c3 1 7 3 11 5l14-29zM387 217h-134l-102-111-5 6 102 109v190h14v-166h125zM439 84l-25 18c2 3 4 6 7 9l25-17zM456 217c0 4 0 24 0 28h28v-28z" />
<glyph unicode="&#xe625;" d="M256 464c133 0 240-107 240-240 0-132-107-240-240-240-132 0-240 108-240 240 0 133 108 240 240 240zM256 480c-141 0-256-114-256-256 0-141 115-256 256-256 142 0 256 115 256 256 0 142-114 256-256 256zM170 396l-9 18-11-5 10-19c3 2 7 4 10 6zM62 243h-27v-27h27c0 4 0 23 0 27zM261 416v26h-14v-26c4 0 10 0 14 0zM451 311l-5 10-21-10c2-4 3-7 5-11zM356 386c3-2 6-4 10-7l11 18-10 7zM71 336l19-13c2 3 4 7 7 10l-19 13zM333 48l14-28 11 5-14 28c-4-2-7-3-11-5zM406 105l24-16 7 9-24 17c-2-3-5-6-7-10zM446 243c0-4 0-23 0-27h27v27zM247 31v-27h14v27c-3 0-9 0-14 0zM131 37l10-6 17 26c-4 2-7 4-10 6zM57 124l5-11 26 13c-2 4-4 7-5 11zM261 402h-14v-182l-97-105 4-5 98 106h128v27h-119z" />
<glyph unicode="&#xe626;" d="M256 480c-141 0-256-115-256-256s115-256 256-256c141 0 256 115 256 256s-115 256-256 256zM154 119c0-6-5-10-10-10h-19c-6 0-10 4-10 9v173c0 6 4 10 10 10h19c5 0 10-4 10-10zM384 118c-3-6-9-9-19-9h-58c-28 0-57 7-58 7-43 10-46 11-48 12 0 0-9 2-9 10v151c0 5 3 10 9 11 49 21 67 69 68 106 0 6 4 10 9 10 11 0 29-19 29-48 0-26-1-30-10-58 68 0 106-8 114-9 1 0 2 0 3-1 3-1 6-3 7-6 1-1 1-3 1-4 0-94-38-171-38-172z" />
<glyph unicode="&#xe627;" d="M256 464c133 0 240-107 240-240 0-132-107-240-240-240-132 0-240 108-240 240 0 133 108 240 240 240zM256 480c-141 0-256-114-256-256 0-141 115-256 256-256 142 0 256 115 256 256 0 142-114 256-256 256zM409 267c-1 2-3 4-7 5-1 1-2 1-3 1-8 1-47 9-116 9 8 26 9 30 9 55 0 28-18 46-29 46-5 0-10-4-10-9 0-36-19-82-70-101-5-2-9-6-9-11v-146c0-8 10-9 10-9 2-1 5-2 49-12 1 0 30-7 60-7h58c12 0 17 4 20 10 0 0 39 74 40 164 0 2-1 3-2 5zM128 86c-2 0-4 0-5 0s-3 0-4 0zM124 277c-6-2-9-5-9-9v-173c0-4 3-7 8-9 5 1 9 5 9 9v173c0 4-3 7-8 9zM119 277c2 0 3 0 5 0 1 0 2 0 4 0z" />
<glyph unicode="&#xe628;" d="M176 190v-81l132 221zM103 199h63l111 117zM229 172l115-72v261l-4-3zM256 480c-141 0-256-115-256-256s115-256 256-256c141 0 256 115 256 256s-115 256-256 256zM360 90l-7-12-8 6h-1v1l-122 76-40-67-6 3h-13v89h-78l-8-5-8 10 4 3v5h7l237 160 22 23 5-4h1l8 5 7-11-4-2v-278z" />
<glyph unicode="&#xe629;" d="M256 464c133 0 240-107 240-240 0-132-107-240-240-240-132 0-240 108-240 240 0 133 108 240 240 240zM256 480c-141 0-256-114-256-256 0-141 115-256 256-256 142 0 256 115 256 256 0 142-114 256-256 256zM383 377l3 2-7 11-8-6h-2l-4 5-23-24-241-163h-7v-5l-4-2 4-6 3-5 8 5h81v-91h13l5-3 42 69 123-78v-1h1l9-6 7 12-3 2v284zM301 322l-112-120h-64zM199 111v83l134 142zM252 175l113 190 4 3v-267z" />
<glyph unicode="&#xe62a;" d="M257 465c132 0 240-108 240-240 0-133-108-240-240-240-133 0-240 107-240 240 0 132 107 240 240 240zM257 481c-142 0-256-115-256-256 0-142 114-256 256-256 141 0 256 114 256 256 0 141-115 256-256 256zM255 60c-3 0-6 2-8 4l-4 6c-18 24-109 148-109 206 0 65 54 119 121 119s122-53 122-119c0-58-91-182-109-206l-4-6c-2-2-5-4-9-4zM255 379c-58 0-105-46-105-103 0-44 66-144 105-196 40 52 106 152 106 196 0 57-47 103-106 103zM255 207c-42 0-77 32-77 71s35 70 77 70c42 0 76-31 76-70s-34-71-76-71zM255 332c-34 0-61-24-61-54s27-55 61-55c33 0 60 25 60 55s-27 54-60 54z" />
<glyph unicode="&#xe62b;" d="M259 481c-100 0-183-80-183-178 0-95 166-315 174-324l6-9c1-1 2-2 3-2 2 0 3 1 4 2l6 9c7 9 173 229 173 324 0 98-82 178-183 178zM259 407c61 0 110-45 110-100 0-56-49-101-110-101-60 0-109 45-109 101 0 55 49 100 109 100z" />
<glyph unicode="&#xe62c;" d="M255 480c-123 0-223-100-223-223 0-124 100-224 223-224v-65c11 0 146 74 201 191 21 45 22 87 22 98 0 123-100 223-223 223zM317 333c4 5 10 7 17 7 6 0 12-2 17-7 4-4 7-10 7-16s-3-12-7-16c-5-5-11-7-17-7-7 0-13 2-17 7-5 4-7 10-7 16s2 12 7 16zM373 165h-152v26c6 1 10 3 13 6 2 3 4 11 4 21v29c0 11-2 16-3 19 0 3-2 5-4 7-2 1-5 2-8 2-4 0-9-1-12-4-4-3-8-7-12-14v-39c0-10-1-18 1-20 2-4 4-6 10-7v-26h-73v26c6 1 11 3 13 6 2 2 4 10 4 20v80c0 11-2 16-4 18-2 3-6 4-13 5v29h62v-73c8 8 14 14 21 18 7 3 14 5 21 5 9 0 17-3 24-8s11-11 13-17c2-7 5-19 5-35v-21c0-11-1-19 2-22 2-2 3-4 10-5 6 0 11 2 14 6 2 2 3 8 3 18v22c0 9-1 16-3 18-3 3-8 5-14 5v28h61v-73c0-10 1-16 3-19 3-3 7-4 14-4v-27z" />
<glyph unicode="&#xe62d;" d="M487.52 137.408c-10.688 62.080-55.712 102.848-55.712 102.848 6.464 56.48-17.12 66.464-17.12 66.464-4.928 174.56-155.36 171.52-158.528 171.392-3.136 0.128-153.568 3.168-158.496-171.424 0 0-23.52-9.984-17.152-66.464 0 0-44.992-40.736-55.744-102.848 0 0-5.696-104.96 51.456-12.864 0 0 12.896-35.008 36.416-66.496 0 0-42.112-14.304-38.592-51.424 0 0-1.472-41.376 89.984-38.56 0 0 64.288 4.928 83.552 32.16h16.928c19.296-27.232 83.584-32.16 83.584-32.16 91.488-2.848 90.048 38.56 90.048 38.56 3.488 37.12-38.624 51.424-38.624 51.424 23.584 31.488 36.384 66.496 36.384 66.496 57.376-92.064 51.616 12.896 51.616 12.896z" />
<glyph unicode="&#xe62e;" d="M387.968 174.24c-6.112 35.392-31.744 58.592-31.744 58.592 3.68 32.16-9.76 37.856-9.76 37.856-2.816 99.456-88.512 97.728-90.304 97.664-1.792 0.064-87.488 1.792-90.304-97.664 0 0-13.408-5.696-9.76-37.856 0 0-25.632-23.2-31.744-58.592 0 0-3.264-59.808 29.312-7.328 0 0 7.328-19.936 20.736-37.888 0 0-24-8.128-21.984-29.312 0 0-0.832-23.552 51.264-21.952 0 0 36.64 2.816 47.616 18.304h9.664c10.976-15.488 47.584-18.304 47.584-18.304 52.128-1.632 51.328 21.952 51.328 21.952 1.984 21.184-22.016 29.312-22.016 29.312 13.44 17.952 20.736 37.888 20.736 37.888 32.64-52.48 29.376 7.328 29.376 7.328zM256 464.672c132.352 0 240-107.648 240-240s-107.648-240-240-240-240 107.648-240 240 107.648 240 240 240zM256 480.672c-141.376 0-256-114.624-256-256s114.624-256 256-256c141.376 0 256 114.624 256 256s-114.624 256-256 256v0z" />
<glyph unicode="&#xe62f;" d="M148 435c-151-27-201-197-81-275 6-4 6-4-3-33l-9-25 61 32 16-4c17-4 39-7 53-7h9l-3 11c-24 88 58 174 164 174h14l-3 10c-23 82-121 135-218 117zM135 359c16-11 17-34 1-44-25-16-54 12-37 37 7 11 25 14 36 7zM263 359c27-18 7-59-23-47-21 8-23 37-4 48 8 4 21 4 27-1zM321 295c-74-14-126-71-123-136 4-87 106-147 204-120l12 3 24-13c14-8 25-13 25-12 1 0-2 10-5 21-8 24-8 22 2 29 118 85 14 255-139 228zM318 224c7-4 10-15 8-23-6-17-32-18-39-2-8 19 14 36 31 25zM423 222c10-10 9-26-3-33-19-9-38 10-29 28 7 11 23 14 32 5z" />
<glyph unicode="&#xe630;" d="M343 427c-16-7-20-24-8-36 6-6 11-7 35-7 32 0 55-8 71-28 21-23 23-30 23-72 0-38 0-39 9-44 20-11 34 3 38 41 6 49-23 106-67 132-29 17-78 23-101 14zM178 364c-38-13-74-39-113-81-92-98-86-191 16-241 105-51 248-34 325 40 58 55 51 124-15 147-12 4-15 7-14 11 6 15 8 32 5 42-10 32-48 39-105 20l-22-7 2 22c2 27-4 41-19 49-13 7-39 6-60-2zM271 234c50-13 81-44 81-79 0-40-36-76-94-95-30-10-88-13-116-5-53 15-84 45-84 83 0 21 9 39 29 57 19 18 33 26 60 35 41 14 85 16 124 4zM166 202c-34-16-53-40-53-70 0-28 13-47 39-61 21-11 58-10 81 2 29 15 48 44 48 72 0 23-20 50-44 60-19 8-51 6-71-3zM190 139c2-3 4-8 4-13 0-17-28-31-40-19-6 6-4 22 3 29 8 7 27 9 33 3zM349 358c-16-15-5-34 19-34 21 0 31-11 31-35 0-15 1-19 7-23 18-13 33 1 33 31 0 36-26 64-63 67-17 1-21 0-27-6z" />
<glyph unicode="&#xe631;" d="M256 464.672c132.352 0 240-107.648 240-240s-107.648-240-240-240-240 107.648-240 240 107.648 240 240 240zM256 480.672c-141.376 0-256-114.624-256-256s114.624-256 256-256c141.376 0 256 114.624 256 256s-114.624 256-256 256v0zM325.536 232.672c-4.096 1.248-6.88 2.080-4.704 7.552 4.64 11.904 5.088 22.112 0.064 29.44-9.408 13.696-35.2 12.96-64.736 0.352 0 0-9.28-4.128-6.912 3.328 4.512 14.976 3.84 27.424-3.232 34.656-16.032 16.32-58.656-0.608-95.232-37.824-27.392-27.968-43.296-57.504-43.296-83.104 0-48.864 61.536-78.592 121.792-78.592 78.944 0 131.456 46.72 131.456 83.84 0 22.4-18.528 35.104-35.2 40.352zM229.44 126.016c-48.032-4.8-89.536 17.28-92.672 49.44-3.104 32.128 33.312 62.080 81.344 66.944 48.096 4.832 89.568-17.312 92.672-49.44 3.136-32.128-33.312-62.144-81.344-66.944zM377.984 322.144c-19.040 21.536-47.168 29.76-73.12 24.128h-0.064c-6.016-1.312-9.824-7.328-8.576-13.44 1.344-6.080 7.232-9.984 13.248-8.672 18.464 4 38.432-1.888 52-17.152 13.568-15.328 17.216-36.16 11.392-54.464v0c-1.888-5.952 1.312-12.32 7.2-14.24 5.856-1.92 12.096 1.344 14.016 7.264 0 0 0 0.032 0 0.032 8.128 25.728 2.976 55.072-16.096 76.544zM348.704 295.264c-9.28 10.496-23.008 14.464-35.616 11.744-5.184-1.12-8.512-6.304-7.36-11.584 1.088-5.248 6.176-8.608 11.328-7.488v0c6.208 1.344 12.896-0.608 17.44-5.728 4.576-5.12 5.792-12.128 3.84-18.24v0c-1.632-5.12 1.12-10.624 6.144-12.288 5.024-1.632 10.4 1.184 12.032 6.304 4 12.512 1.504 26.784-7.808 37.28zM234.24 217.664c-22.88 6.048-48.704-5.568-58.624-26.112-10.112-20.896-0.352-44.192 22.752-51.776 23.936-7.84 52.128 4.192 61.952 26.784 9.664 22.112-2.432 44.864-26.080 51.104zM216.768 164.16c-4.64-7.52-14.592-10.816-22.112-7.328-7.36 3.392-9.536 12.16-4.896 19.552 4.608 7.328 14.208 10.592 21.664 7.424 7.52-3.264 9.92-12 5.344-19.648zM232.096 184.224c-1.696-2.944-5.408-4.352-8.288-3.136-2.88 1.184-3.776 4.48-2.144 7.328 1.664 2.88 5.216 4.288 8.096 3.104 2.912-1.088 3.936-4.352 2.336-7.296z" />
<glyph unicode="&#xe632;" d="M390.016 411.36v-373.984h-374.016v373.984h374.016zM406.016 427.36h-406.016v-405.984h406.016v405.984z" />
<glyph unicode="&#xe633;" d="M70.464 245.248l19.136 19.136 180.832-132.32-27.072-54.112-172.896 167.296zM492.832 414.208l19.168-19.136-268.64-317.12-54.112 54.112 303.584 282.144zM390.016 411.36v-373.984h-374.016v373.984h374.016zM406.016 427.36h-406.016v-405.984h406.016v405.984z" />
<glyph unicode="&#xe634;" d="M512 428.16l-51.104 51.104-204.512-204.512-205.216 205.248-51.168-51.168 205.248-205.216-204.544-204.512 51.168-51.104 204.48 204.512 203.84-203.84 51.168 51.136-203.872 203.84z" />
<glyph unicode="&#xe635;" d="M255.864 477.336c45.77 0 87.249-18.538 117.405-48.683v0c29.862-29.874 48.389-71.228 48.389-116.987 0-45.905-18.538-87.272-48.389-117.144-5.532-5.656-11.482-10.624-17.567-15.332 28.067-7.462 52.815-22.399 72.865-42.315v0c29.603-29.309 48.14-70.529 48.14-115.35v-31.24c0-10.782-8.851-19.634-19.644-19.634h-402.137c-10.782 0-19.633 8.851-19.633 19.634v31.228c0 44.821 18.392 86.041 48.118 115.349 19.78 20.187 45.081 34.852 72.888 42.315-6.221 4.854-12.035 9.675-17.421 15.332-30.008 29.874-48.535 71.24-48.535 117.144 0 45.758 18.538 87.113 48.535 116.987 29.874 30.155 71.488 48.693 116.987 48.693v0zM345.608 401.286v0c-22.964 22.953-54.497 37.054-89.755 37.054-34.999 0-66.644-14.101-89.473-37.054-22.952-22.964-37.189-54.621-37.189-89.608 0-34.841 14.237-66.668 37.189-89.608v0-0.147c22.828-22.817 54.486-37.065 89.473-37.065 35.258 0 66.644 14.259 89.608 37.212 22.941 22.941 37.2 54.767 37.2 89.608 0 34.988-14.259 66.644-37.2 89.608h0.147zM313.24 146.009v0h-114.503c-34.299 0-65.279-14.101-87.678-36.783-22.681-22.411-36.501-53.526-36.501-87.701v-11.866h363.13v11.866c0 34.163-14.113 65.279-36.636 87.701v0.271c-22.546 22.411-53.514 36.512-87.813 36.512v0z" />
<glyph unicode="&#xe636;" d="M255.84 463.616c132.224 0 239.84-107.584 239.84-239.808s-107.584-239.808-239.84-239.808-239.84 107.584-239.84 239.808c0 132.224 107.584 239.808 239.84 239.808zM255.84 479.616c-141.28 0-255.84-114.528-255.84-255.808 0-141.248 114.56-255.808 255.84-255.808s255.84 114.56 255.84 255.808c-0.032 141.28-114.592 255.808-255.84 255.808v0zM381.888 115.808l-17.984-17.984-108.064 108-108.032-108-17.984 17.952 108.032 108.032-108.064 108.064 17.984 17.984 108.032-108.032 108.032 108.032 17.984-17.984-107.968-108.032z" />
<glyph unicode="&#xe637;" d="M150.272 54.72l-150.272 160.992 25.632 27.040 124.608-134.016 330.912 300.736 25.6-27.040-356.48-327.712z" />
<glyph unicode="&#xe638;" d="M255.168 480c-123.264 0-223.168-99.968-223.168-223.328 0-123.328 99.904-223.328 223.168-223.328v-65.344c11.072 0 146.272 74.112 200.704 191.424 21.6 44.64 22.496 86.688 22.496 97.248 0 123.36-99.968 223.328-223.2 223.328z" />
<glyph unicode="&#xe639;" d="M223.2 480c-123.232 0-223.2-100-223.2-223.296 0-123.392 99.968-223.296 223.2-223.296v-65.376c10.976 0 146.24 74.176 200.64 191.456 21.696 44.544 22.496 86.72 22.496 97.216-0.032 123.296-99.904 223.296-223.136 223.296zM284.608 333.44c4.608 4.512 10.368 6.656 17.056 6.656s12.32-2.144 17.056-6.656c4.608-4.544 6.88-9.984 6.88-16.256 0-6.4-2.272-11.776-7.008-16.256-4.672-4.512-10.464-6.592-16.928-6.592-6.688 0-12.384 2.176-17.056 6.592-4.608 4.384-6.912 9.856-6.912 16.256 0 6.176 2.304 11.744 6.912 16.256zM341.28 164.672h-152.128v26.496c5.344 0.8 10.272 2.88 12.992 6.080 1.984 2.688 3.968 10.752 3.968 20.672v28.8c0 11.392-1.568 15.712-2.592 18.752-1.024 3.008-2.496 5.568-4.8 7.168-2.304 1.696-4.608 2.72-7.424 2.72-4.288 0-8.992-1.024-12.64-4.352-4-3.36-7.456-7.104-12.064-13.856v-39.040c0-9.92-0.192-17.984 1.376-20.448 1.92-3.456 4-5.696 10.336-6.496v-26.464h-73.312v26.464c6.4 0.64 10.88 2.752 13.376 5.92 1.888 2.144 3.776 9.696 3.776 20.448l-0.192 79.808c0 10.56-1.888 15.168-3.968 17.664-2.080 2.752-6.4 4.16-12.992 5.056v28.64h61.6v-72.576c8.16 8.096 14.656 14.080 21.44 17.568 6.688 3.328 13.792 4.992 21.152 4.992 9.184 0 17.12-2.496 23.872-7.552 6.592-4.928 10.976-10.752 13.184-17.6s4.896-18.496 4.896-34.592v-21.024c0-10.816-0.608-18.816 1.44-21.472 2.24-2.528 3.584-4.48 9.888-5.28 6.432 0.16 11.456 2.208 14.624 5.504 2.080 2.24 3.008 8.384 3.008 18.272v21.568c0 9.792-1.216 16.128-3.52 18.88-2.464 2.752-7.264 4.192-14.144 4.608v27.84h61.696v-72.48c0-9.92 0.768-16.544 3.168-19.328 2.4-2.88 7.008-3.84 14.016-4.256v-27.104zM726.24 341.824h-111.104v-25.952h111.104v25.952zM839.232 276.256h34.656v-14.816h-53.792v-24h53.792v-28.512c0-6.848-3.072-10.336-9.12-10.336h-8.256v-24h22.784c21.76-1.12 32.16 9.984 30.976 33.184v29.76h51.872v23.872h-51.872v14.848h34.624v12.96c6.624-2.528 14.208-4.736 22.784-6.464v22.144c-23.68 9.792-42.496 25.472-56.384 47.040h-38.368c-12.224-21.632-30.656-37.248-55.488-47.040v-22.144c8.576 1.728 15.68 3.616 21.824 5.504v-12zM892.864 320.576c7.968-8.064 16.768-14.88 26.464-20.416h-52.832c10.368 6.304 19.232 13.12 26.368 20.416zM814.624 301.088c-3.136 16.704-8.224 32.032-15.488 46.24h-33.76c6.080-15.36 10.368-30.848 12.768-46.24h36.48zM962.112 180.32v18.368c-9.728 8.608-15.712 19.392-18.144 32.288h-28.224c2.464-26.336 17.792-43.296 46.368-50.656zM839.232 230.976c-3.616-14.688-10.656-25.312-20.896-31.328v-20.352c27.328 6.112 44.224 23.36 50.944 51.68h-30.048zM1351.168 351.936h-41.088v-32.384h-75.616v-173.44h156.704c24.704-1.344 36.672 10.528 35.36 35.040v138.496h-75.392v32.288zM1310.080 170.912h-36.608v49.024h36.608v-49.024zM1310.080 247.616h-36.608v45.184h36.608v-45.184zM1387.52 182.976c0-8-3.68-11.84-10.944-11.84h-25.44v48.8h36.384v-36.96zM1387.52 292.8v-45.216h-36.384v45.216h36.384zM1112.512 351.008h-46.464c-1.952-8-3.68-14.656-5.6-20.288h-53.76v-185.44h144.032c24.8-0.736 37.056 12.16 36.384 38.72v146.72h-80.224c1.952 5.536 3.68 12.32 5.632 20.288zM1146.112 184c0.672-9.408-3.552-13.92-12.768-13.92h-85.408v27.808h98.176v-13.888zM1146.112 224.544h-98.176v26.752h98.176v-26.752zM1146.112 303.008v-24.96h-98.176v24.96h98.176zM604.32 196.832c-8.128-1.856-15.008-3.68-21.056-5.504v51.712h15.424v25.856h-15.424v45.184h18.208v25.856h-74.72v-25.856h19.168v-45.216h-17.376v-25.856h17.376v-59.008c-6.688 0-13.696-0.64-21.056-1.856v-30.56c28.64 3.808 54.976 10.112 79.328 19.52v25.728h0.128zM811.008 196.832v88.704h-52.864v-24.928h15.52v-74.752c0.64-11.040-4.48-19.232-15.52-24.128v-20.128c18.208 1.216 31.936 6.624 40.992 16.48 7.904-9.856 20-14.752 36.48-14.752h132.864v24.096h-130.176c-18.848-0.8-27.968 9.248-27.296 29.408zM717.152 170.912c0-2.944-1.248-4.512-3.68-4.512h-1.76c-2.496 0-3.648 1.568-3.648 4.512v82.144h26.368v25.984h-129.344v-25.792h19.168v-12.032c1.184-35.776-6.048-61.504-21.888-77.536v-24.8c41.984 17.792 61.312 51.904 58.304 102.368v11.808h10.976v-82.144c0-18.368 9.632-27.584 29.056-27.584h13.696c17.6-0.672 26.144 7.648 25.536 24.8v12.192h-22.784v-9.408zM1661.696 340.864h-112.96v-26.752h112.96v26.752zM1541.376 284.48v-26.72h57.504v-79.264c0-7.968-3.36-12.064-10.016-12.064h-19.104v-23.872h37.28c21.888-0.64 32.8 10.624 32.8 33.312v81.856h28.192v26.752h-126.656zM1459.424 244.896v-22.080c7.968 1.184 14.912 2.624 20.96 4.48v-87.648h37.28v112.576c7.968 10.4 14.624 23.328 20.032 38.816h-40.064c-5.92-24.096-18.816-39.424-38.208-46.144zM1459.424 304.896v-23.168c40.032 4.832 66.176 28.032 78.336 69.184h-40.032c-6.624-25.152-19.328-40.512-38.304-46.016z" horiz-adv-x="1674" />
<glyph unicode="&#xe63a;" d="M438.624 244.608c-15.072-17.216-29.792-35.776-40.064-61.44-4.704-11.84-15.872-19.488-28.384-19.488-12.608 0-23.68 7.648-28.48 19.616-11.904 29.728-29.984 50.016-47.456 69.664-4.352 4.864-8.736 9.824-13.056 14.912-0.224-0.096-0.352-0.16-0.576-0.256-17.056-5.248-30.176-28.288-22.304-47.040 5.408-12.8 43.168-10.368 39.904-38.080-2.72-22.56 26.304-28.512 36.608-27.456 10.304 1.28 26.112-17.216 18.144-25.376-7.936-8.16-22.912-8.48-20.608-29.44 0.64-6.112 18.752-5.312 18.752-14.592 0-9.344-9.376-19.904-2.144-30.624 1.536-2.4 3.136-4.16 4.8-5.6-34.72-32.576-80.992-52.576-131.744-52.576-107.296 0-194.528 88.992-194.528 198.496 0 33.216 8.064 64.544 22.272 92.128-0.064-35.616 18.592-65.28 27.328-74.208 28.576-29.056 69.984-19.872 75.264-44.288 5.376-24.256-28.448-24.384-26.208-42.944 2.304-18.592 46.304-23.552 36.48-40.672-12.992-22.816 8.736-24.512 2.464-52.64-3.392-15.328 18.368-18.304 26.4-6.656 6.176 8.928 4.928 19.936 17.312 33.312 15.104 16.448 50.24 19.136 46.304 46.304-6.688 45.088-49.664 52.16-68.416 62.752-21.28 11.936-16.064 40.512-20.672 54.176-6.464 19.36-28.352-5.44-40 5.888-19.2 18.464 3.456 44.64 19.584 44.096 34.016-1.12 44.48-34.88 56.992-33.728 12.192 1.152 20.096 18.496 22.24 27.776 4.512 20.16-7.68 11.136-12.608 21.632-6.592 14.016 23.2 27.424 34.752 37.728 1.76 1.568 3.072 3.072 3.744 4.512 3.456 6.88-1.056 12.128-8.736 16.928-15.36 9.44-43.392 16.992-44.704 31.776-0.8 9.088 16.256 13.472 35.68 14.272 3.232-0.16 6.368-0.48 9.632-0.8 1.632 9.312 4.192 18.528 7.744 27.296-9.312 1.248-18.752 1.856-28.32 1.856-122.432 0-222.016-101.632-222.016-226.496 0-124.928 99.584-226.56 222.016-226.56 122.368 0 221.984 101.632 221.984 226.56 0 16.928-1.856 33.44-5.376 49.28zM359.744 479.488c-62.656-6.016-105.6-68-94.656-131.264 11.104-64.288 69.184-84.032 97.984-156.192 2.592-6.464 11.52-6.528 14.112-0.032 31.968 80.032 99.872 95.648 99.872 178.848 0.032 63.808-53.536 114.784-117.312 108.64zM370.176 313.28c-31.2 0-56.48 25.824-56.48 57.6 0 31.84 25.28 57.632 56.48 57.632 31.136 0 56.448-25.824 56.448-57.632 0-31.776-25.312-57.6-56.448-57.6z" />
<glyph unicode="&#xe63b;" d="M387.68 75.808l-60 118.56-60.992-45.792-122.080 152.64-81.024-216.032c-21.952 32.128-34.816 71.008-34.816 112.832 0 110.688 89.728 200.416 200.416 200.416 0.608 0 1.184-0.096 1.792-0.096v28.736c-0.608 0-1.216 0.096-1.792 0.096-126.592 0-229.184-102.592-229.184-229.152 0-126.528 102.592-229.12 229.152-229.12 106.336 0 195.52 72.608 221.344 170.88h-30.176c-7.2-23.392-18.080-45.088-32.64-63.968zM442.304 262.016c19.328 15.872 34.176 37.44 41.184 63.168 18.112 65.888-21.312 133.664-87.872 151.072s-135.392-22.016-153.472-87.904c-18.048-65.888 21.344-133.664 87.936-151.040 27.744-7.296 55.936-4.544 80.64 5.792l34.080-58.592c0.448-0.672 0.928-1.344 1.44-1.952l9.056-15.552 31.68 18.144-24.864 42.752-19.808 34.112zM420.576 281.984c-5.376-4.064-11.136-7.584-17.248-10.464-19.744-9.312-42.816-12.064-65.568-6.112-50.88 13.344-81.024 65.12-67.232 115.52 13.856 50.368 66.496 80.544 117.408 67.232 50.88-13.312 80.992-65.152 67.2-115.52-5.76-21.024-18.272-38.4-34.56-50.656z" />
<glyph unicode="&#xe63c;" d="M257.376 464c131.552 0 238.624-107.040 238.624-238.624 0-131.552-107.072-238.592-238.624-238.592s-238.592 107.040-238.592 238.592c0 131.552 107.040 238.624 238.592 238.624zM257.376 480c-140.608 0-254.592-113.984-254.592-254.592 0-140.672 113.984-254.592 254.592-254.592 140.64 0 254.624 113.984 254.624 254.592s-113.984 254.592-254.624 254.592v0z" />
<glyph unicode="&#xe63d;" d="M255.456 480c-140.832 0-255.456-114.848-255.456-256.032 0-141.152 114.624-256 255.456-256s255.456 114.848 255.456 256c0 141.184-114.624 256.032-255.456 256.032z" />
<glyph unicode="&#xe63e;" d="M264.256 209.344v91.968l-63.68-91.968zM256 480c-141.376 0-256-114.624-256-256s114.624-256 256-256c141.344 0 256 114.624 256 256s-114.624 256-256 256zM304.128 196.032h-24.128v-42.816h-15.744v42.816h-79.2v13.536l80.672 115.328h14.272v-115.584h24.128v-13.28z" />
<glyph unicode="&#xe63f;" d="M256 480c-141.376 0-256-114.624-256-256s114.624-256 256-256c141.344 0 256 114.624 256 256s-114.624 256-256 256zM309.28 188.64c-3.072-7.136-7.136-13.184-12.192-18.080s-10.944-8.64-17.568-11.2c-6.656-2.528-13.504-3.808-20.576-3.808-8.192 0-15.872 0.8-23.008 2.464-7.136 1.632-13.408 4.384-18.816 8.224s-9.76 8.896-13.12 15.008c-3.36 6.144-5.376 13.76-6.016 22.752h15.744c1.6-11.776 6.336-20.64 14.144-26.432 7.776-5.824 17.344-8.704 28.672-8.704 6.4 0 12.16 1.12 17.344 3.424 5.152 2.272 9.504 5.44 13.152 9.472 3.552 4.032 6.304 8.672 8.256 14.016 1.888 5.312 2.816 11.104 2.816 17.344 0 6.368-1.056 12.288-3.072 17.696-2.080 5.44-4.96 10.112-8.64 14.048s-8.224 6.976-13.536 9.12c-5.344 2.112-11.296 3.2-17.856 3.2-7.872 0-14.912-1.44-21.152-4.288-6.208-2.912-11.712-7.456-16.448-13.696l-13.056 1.728 14.016 89.792h86.080v-13.28h-72.768l-10.848-58.304c3.424 2.112 6.592 3.936 9.472 5.408s5.792 2.656 8.736 3.552c2.944 0.896 6.016 1.504 9.216 1.856 3.2 0.32 6.752 0.48 10.688 0.48 7.872 0 15.2-1.312 21.888-3.936 6.752-2.624 12.576-6.4 17.504-11.328 4.896-4.896 8.704-10.912 11.456-18.048 2.688-7.136 4.064-15.136 4.064-23.968 0-9.216-1.568-17.376-4.576-24.512z" />
<glyph unicode="&#xe640;" d="M260.192 254.464c-6.080 0-11.52-1.152-16.352-3.424-4.832-2.336-8.928-5.44-12.288-9.376s-5.952-8.48-7.744-13.664c-1.824-5.152-2.72-10.688-2.72-16.576 0-4.96 0.672-9.92 2.080-14.912 1.408-5.024 3.712-9.536 6.88-13.632 3.2-4.128 7.264-7.456 12.192-10.080 4.896-2.624 10.976-3.936 18.208-3.936 7.36 0 13.568 1.248 18.592 3.808 4.992 2.528 9.056 5.888 12.192 10.080 3.072 4.16 5.376 8.832 6.752 14.016s2.048 10.368 2.048 15.648c0 13.472-3.264 23.808-9.696 31.136-6.496 7.232-16.512 10.912-30.144 10.912zM256 480c-141.376 0-256-114.624-256-256s114.624-256 256-256c141.344 0 256 114.624 256 256s-114.624 256-256 256zM301.28 170.56c-9.696-9.984-23.36-15.008-41.088-15.008-8.704 0-16.736 1.44-24.096 4.32-7.36 2.848-13.792 7.552-19.2 14.112s-9.664 15.136-12.768 25.728c-3.136 10.592-4.704 23.52-4.704 38.752 0 10.336 0.896 21.024 2.72 32.096 1.792 11.072 5.024 21.216 9.696 30.368 4.672 9.184 11.072 16.736 19.2 22.656s18.592 8.832 31.36 8.832c13.76 0 25.248-3.616 34.432-10.816 9.184-7.232 14.624-17.792 16.256-31.744h-16.256c-1.792 8.864-5.376 15.968-10.816 21.312s-12.8 8-22.144 8c-10.656 0-19.072-2.528-25.216-7.616s-10.848-11.52-14.144-19.296c-3.264-7.84-5.472-16.32-6.624-25.504s-2.048-17.888-2.688-26.080c2.464 3.264 5.056 6.56 7.744 9.824s5.792 6.176 9.216 8.736c3.456 2.56 7.456 4.608 12.064 6.144 4.576 1.536 10.080 2.336 16.48 2.336 17.536 0 31.104-4.96 40.704-14.88 9.568-9.92 14.368-23.552 14.368-40.96 0-17.536-4.8-31.296-14.496-41.312z" />
<glyph unicode="&#xe641;" d="M256 480c-141.376 0-256-114.624-256-256s114.624-256 256-256c141.344 0 256 114.624 256 256s-114.624 256-256 256zM314.336 303.968c-12.48-14.112-23.040-28.608-31.744-43.424s-15.84-29.28-21.408-43.296c-5.568-14.016-9.728-27.136-12.416-39.264-2.688-12.16-4.32-22.464-4.8-31.008h-17.216c0.8 12.48 3.328 25.728 7.488 39.712 4.192 14.016 9.376 27.968 15.616 41.728 6.208 13.76 13.28 27.104 21.152 39.968s16 24.384 24.384 34.56h-91.52v15.744h110.464v-14.72z" />
<glyph unicode="&#xe642;" d="M245.216 247.008c4.416-1.216 9.024-1.856 13.76-1.856s9.184 0.64 13.28 1.856c4.096 1.216 7.616 3.232 10.592 6.016 2.944 2.784 5.248 6.304 7.008 10.592 1.696 4.256 2.56 9.504 2.56 15.744 0 8.864-2.88 15.712-8.608 20.544-5.728 4.8-14.592 7.232-26.56 7.232-4.928 0-9.504-0.672-13.792-1.984s-8-3.296-11.2-5.888c-3.2-2.624-5.696-5.92-7.488-9.856-1.792-3.904-2.688-8.416-2.688-13.504 0-5.408 1.024-10.048 3.072-13.888 2.048-3.872 4.8-7.008 8.224-9.472 3.456-2.464 7.392-4.32 11.84-5.536zM287.52 222.912c-3.808 3.040-8.224 5.28-13.312 6.752-5.056 1.472-10.496 2.208-16.224 2.208-6.048 0-11.648-0.736-16.704-2.208-5.12-1.472-9.536-3.712-13.28-6.752-3.808-3.040-6.752-6.912-8.864-11.552-2.144-4.704-3.2-10.24-3.2-16.64 0-5.408 1.024-10.4 3.072-15.008s4.928-8.576 8.608-11.936c3.68-3.328 8.192-6.016 13.536-8s11.264-2.944 17.824-2.944c5.728 0 11.072 0.928 16 2.816 4.896 1.92 9.216 4.576 12.864 8 3.68 3.456 6.56 7.552 8.64 12.32 2.048 4.736 3.040 10.016 3.040 15.744 0 6.048-1.056 11.328-3.2 15.872-2.112 4.512-5.024 8.288-8.8 11.328zM256 480c-141.376 0-256-114.624-256-256s114.624-256 256-256c141.344 0 256 114.624 256 256s-114.624 256-256 256zM310.976 173.568c-2.88-6.56-6.944-12.064-12.256-16.48-5.376-4.448-11.808-7.808-19.328-10.080-7.552-2.272-15.936-3.424-25.12-3.424-6.24 0-12.608 1.056-19.072 3.2-6.496 2.112-12.288 5.344-17.472 9.6-5.152 4.288-9.376 9.6-12.672 16-3.232 6.336-4.864 13.792-4.864 22.336 0 10.336 2.592 19.584 7.744 27.68 5.152 8.128 12.672 14.080 22.496 17.824-4.256 2.624-7.904 5.12-10.944 7.52-3.040 2.368-5.536 4.96-7.488 7.744-1.984 2.784-3.424 5.952-4.32 9.472s-1.344 7.904-1.344 13.152c0 5.92 1.312 11.456 3.936 16.704s6.144 9.824 10.56 13.696c4.448 3.84 9.632 6.816 15.648 8.96 5.984 2.112 12.416 3.104 19.296 2.944 6.56 0 12.992-0.8 19.328-2.464 6.304-1.632 11.936-4.16 16.8-7.616 4.928-3.424 8.864-7.84 11.808-13.152 3.008-5.312 4.448-11.68 4.448-19.072 0-9.024-1.824-16.736-5.504-23.136s-9.76-11.616-18.112-15.712c9.504-3.424 17.056-8.928 22.496-16.48 5.504-7.552 8.256-16.416 8.256-26.592 0-8.544-1.44-16.064-4.32-22.624z" />
<glyph unicode="&#xe643;" d="M256 480c-141.376 0-256-114.624-256-256s114.624-256 256-256c141.344 0 256 114.624 256 256s-114.624 256-256 256zM311.328 194.080c-3.104-11.040-7.488-20.352-13.12-27.904-5.696-7.52-12.384-13.216-20.064-16.96-7.712-3.776-16.16-5.664-25.344-5.664-6.72 0-13.056 0.8-18.944 2.464-5.888 1.632-11.072 4.16-15.488 7.616-4.448 3.424-8.032 7.776-10.816 13.024-2.784 5.28-4.512 11.392-5.152 18.464h16c1.792-9.344 5.44-16.416 10.944-21.152s13.088-7.136 22.752-7.136c10.336 0 18.592 2.528 24.704 7.616 6.176 5.056 10.944 11.456 14.304 19.2 3.296 7.68 5.6 16.032 6.88 24.992 1.248 8.896 1.984 17.344 2.304 25.216l-0.512 0.48c-5.248-8.864-11.744-15.584-19.52-20.16-7.776-4.608-16.864-6.912-27.2-6.912-8.192 0-15.584 1.344-22.144 4-6.528 2.592-12.16 6.336-16.832 11.264s-8.288 10.816-10.816 17.696c-2.56 6.912-3.84 14.528-3.84 22.88 0 8.192 1.152 15.776 3.456 22.752s5.76 13.056 10.336 18.208c4.608 5.152 10.368 9.184 17.344 12.032 6.976 2.88 15.2 4.32 24.736 4.32 11.648 0 21.376-2.304 29.12-6.88 7.808-4.576 14.048-10.816 18.688-18.688 4.672-7.872 8-17.152 9.984-27.808 1.952-10.656 2.944-22.048 2.944-34.176 0-14.752-1.568-27.68-4.704-38.784zM255.296 307.136c-13.312-0.32-23.296-4.416-30.016-12.288s-10.080-18.624-10.080-32.224c0-13.28 3.488-23.616 10.464-31.008 6.976-7.36 16.832-11.072 29.632-11.072 6.048 0 11.52 1.152 16.352 3.424 4.832 2.304 8.96 5.408 12.288 9.344 3.36 3.968 5.92 8.544 7.584 13.696 1.76 5.152 2.624 10.688 2.624 16.608 0 12.8-3.424 23.168-10.336 31.104s-16.384 12.096-28.512 12.416z" />
<glyph unicode="&#xe644;" d="M1.056 271.968h510.944v-102.144h-510.944v102.144z" />
<glyph unicode="&#xe645;" d="M510.24 183.424h-212.512v-212.64h-85.056v212.64h-212.608v85.056h212.608v212.576h85.056v-212.576h212.544v-85.056z" />
<glyph unicode="&#xe646;" d="M416 64h-320v320h236.032l19.968 32h-256c-17.664 0-32-14.336-32-32v-320c0-17.664 14.336-32 32-32h320c17.664 0 32 14.336 32 32v211.296l-32-51.296v-160zM469.888 444.352c-3.84 2.464-8.064 3.648-12.256 3.648-7.296 0-14.432-3.584-18.752-10.144l-173.952-250.944-67.296 76.8c-9.12 8.416-23.264 7.872-31.68-1.216s-7.84-23.264 1.248-31.648l84.896-96.896 0.832-0.512 1.696-1.696 4.384-1.984 0.992-0.48 6.88-1.184 0.288 0.064c6.080-0.032 12.128 2.208 16.576 7.040l1.824 2.944 0.096 0.128 190.72 275.104c6.752 10.304 3.84 24.192-6.496 30.976z" />
<glyph unicode="&#xe647;" d="M471.078 117.185c-38.677 0-80.082 91.349-80.082 227.353 0 74.435-60.56 134.995-134.995 134.995s-134.995-60.561-134.995-134.995c0-135.994-41.405-227.353-80.082-227.353-5.051 0-9.154-4.089-9.154-9.154v-57.202c0-5.062 4.099-9.154 9.154-9.154h133.248c4.576-41.121 39.511-73.218 81.832-73.218 42.329 0 77.254 32.097 81.832 73.217h133.248c5.062 0 9.154 4.089 9.154 9.154v57.202c0 5.062-4.089 9.154-9.154 9.154zM256-13.235c-32.225 0-58.959 23.905-63.416 54.913h126.823c-4.449-31.009-31.183-54.913-63.408-54.913zM461.926 59.981h-411.851v39.894c50.722 11.184 89.234 114.614 89.234 244.649 0 64.341 52.351 116.691 116.691 116.691s116.691-52.351 116.691-116.691c0-130.034 38.512-233.474 89.235-244.649v-39.894z" />
<glyph unicode="&#xe648;" d="M354.63-24.697l-10.854-6.267-147.318 255.155 10.854 6.267 147.318-255.155zM207.256 217.828l-10.853 6.269 147.369 255.111 10.853-6.269-147.369-255.111z" />
<glyph unicode="&#xe649;" d="M354.541 224.028l-10.856-6.266-147.283 255.175 10.856 6.265 147.283-255.175zM207.237-30.975l-10.853 6.269 147.371 255.116 10.853-6.269-147.371-255.116z" />
<glyph unicode="&#xe64a;" d="M256-32c-141.376 0-256 114.624-256 256s114.624 256 256 256c141.376 0 256-114.624 256-256s-114.624-256-256-256zM179.2 242.656l-102.4 62.4v-20.928l76.192-45.376v-0.832l-76.192-40.032v-20.8l102.4 56.384v9.184zM178.4 91.616v-22.592h160.672v22.592h-160.672zM435.232 193.728l-76.224 45.376v0.832l76.224 40.032v20.832l-102.432-56.384v-9.184l102.432-62.464v20.96z" />
<glyph unicode="&#xe64b;" d="M256-32c-141.376 0-256 114.656-256 256s114.624 256 256 256c141.344 0 256-114.624 256-256s-114.656-256-256-256zM179.2 300.8h-51.2v-51.2h51.2v51.2zM256 111.328l-57.6 61.44-19.2-20.48 76.8-81.92 76.8 81.952-19.2 20.48-57.6-61.472zM383.968 300.8h-51.168v-51.2h51.168v51.2z" />
<glyph unicode="&#xe64c;" d="M150.176 233.504h91.392v37.28h-91.392v-37.28zM334.176 316.8c12.192 12.448 16.384 29.984 8.896 37.568-3.072 3.136-7.296 3.776-10.368 3.776-8.672 0-18.528-4.8-26.432-12.864-15.808-16.096-25.376-39.104-30.72-55.872h14.528c14.656 5.792 31.552 14.592 44.096 27.392zM168.48 103.008h73.12v121.184h-73.12v-121.184zM234.336 295.552c-0.16 0.576-0.32 1.12-0.416 1.632-5.408 19.808-13.376 35.552-23.072 45.408-4.96 5.088-11.328 8-17.376 8-2.72 0-6.624-0.64-9.536-3.584-3.52-3.616-3.712-8.608-3.52-11.264 0.448-5.696 3.264-11.648 7.808-16.224 9.696-9.888 25.088-18.016 44.544-23.488 0.544-0.16 1.056-0.32 1.568-0.48zM256 480c-141.376 0-256-114.624-256-256s114.624-256 256-256c141.408 0 256 114.624 256 256s-114.592 256-256 256zM387.872 214.848h-18.272v-130.496h-219.424v130.496h-18.272v74.56h62.016c-7.36 4.192-14.272 9.216-20.256 15.264-16.672 17.024-18.56 42.56-4.32 57.152 6.432 6.528 15.040 9.728 24.096 9.728 11.040 0 22.752-4.8 31.968-14.112 17.056-17.44 25.824-43.328 30.304-62.496 5.984 19.072 17.024 45.824 35.968 65.152 11.872 12.096 26.816 19.040 41.024 19.040 9.952 0 18.592-3.424 24.96-9.92 7.968-8.16 11.264-20.352 8.992-33.536-2.016-12-8.416-23.968-17.952-33.696-4.576-4.64-9.568-8.832-14.688-12.576h53.824v-74.56zM278.144 103.008h73.152v121.184h-73.152v-121.184zM278.144 233.504h91.424v37.28h-91.424v-37.28z" />
<glyph unicode="&#xe64d;" d="M256 480c-141.376 0-256-114.624-256-256 0-141.408 114.624-256 256-256s256 114.592 256 256c0 141.376-114.624 256-256 256zM341.184 220.064v-26.56h-67.744v-36.672h67.744v-26.912h-67.744v-53.344h-34.848v53.344h-70.272v26.912h70.272v36.672h-70.272v26.56h59.968l-73.12 120.32h39.328c34.144-59.776 54.88-97.632 62.24-113.664h0.704c2.496 6.592 9.312 19.872 20.448 39.872l41.792 73.792h37.152l-73.792-120.32h58.144z" />
<glyph unicode="&#xe64e;" d="M256 480c-141.376 0-256-114.592-256-255.968 0-141.408 114.624-256.032 256-256.032s256 114.624 256 256.032c0 141.376-114.624 255.968-256 255.968zM209.44 216.256c0-2.784-0.32-5.504-0.864-8.096l88.16-44.096c7.104 8.192 17.44 13.408 29.056 13.408 21.44 0 38.816-17.344 38.816-38.816 0-21.408-17.376-38.752-38.816-38.752-21.408 0-38.784 17.344-38.784 38.752 0 2.816 0.32 5.504 0.896 8.128l-88.16 44.096c-7.072-8.16-17.44-13.408-29.088-13.408-21.408 0-38.784 17.344-38.784 38.784 0 21.408 17.376 38.784 38.784 38.784 11.648 0 22.016-5.248 29.088-13.376l88.16 44.064c-0.576 2.624-0.896 5.312-0.896 8.128 0 21.408 17.376 38.784 38.784 38.784 21.44 0 38.816-17.376 38.816-38.784 0-21.44-17.376-38.816-38.816-38.816-11.616 0-21.984 5.248-29.056 13.408l-88.16-44.064c0.544-2.656 0.864-5.344 0.864-8.128z" />
<glyph unicode="&#xe64f;" d="M492.768 353.76c-2.784-3.488-4.448-7.904-4.448-12.672 0-8.544 5.28-15.872 12.992-18.88v-3.488c-7.584-2.976-12.992-10.368-12.992-18.944 0-8.544 5.28-15.904 12.992-18.912v-3.488c-7.584-2.976-12.992-10.368-12.992-18.976 0-8.544 5.28-15.872 12.992-18.88v-3.456c-7.584-3.008-12.992-10.4-12.992-19.008 0-8.512 5.28-15.84 12.992-18.88v-3.488c-7.584-2.976-12.992-10.336-12.992-18.976 0-8.544 5.28-15.872 12.992-18.88v-3.488c-7.584-3.008-12.992-10.368-12.992-18.976 0-8.544 5.28-15.872 12.992-18.88v-3.488c-7.584-3.008-12.992-10.368-12.992-19.008 0-8.608 5.408-15.968 12.992-18.976v-1.984h-493.312v2.336c7.168 3.2 12.064 10.272 12.064 18.592 0 8.288-4.896 15.392-12.064 18.592v4.192c7.168 3.2 12.064 10.304 12.064 18.592s-4.896 15.36-12.064 18.56v4.224c7.168 3.2 12.064 10.272 12.064 18.56 0 8.32-4.896 15.392-12.064 18.592v4.16c7.168 3.2 12.064 10.304 12.064 18.56 0 8.288-4.896 15.392-12.064 18.592v4.192c7.168 3.2 12.064 10.304 12.064 18.592s-4.896 15.392-12.064 18.592v4.192c7.168 3.2 12.064 10.304 12.064 18.592 0 8.256-4.896 15.36-12.064 18.56v4.192c7.168 3.2 12.064 10.304 12.064 18.592 0 4.8-1.664 9.216-4.448 12.672h477.152zM509.344 361.76h-509.344v-8.32c6.688-0.256 12.064-5.664 12.064-12.352 0-6.72-5.344-12.128-12.064-12.384v-16.64c6.688-0.256 12.064-5.664 12.064-12.352s-5.376-12.096-12.064-12.352v-16.64c6.688-0.256 12.064-5.696 12.064-12.384s-5.376-12.096-12.064-12.32v-16.64c6.688-0.256 12.064-5.696 12.064-12.384s-5.376-12.096-12.064-12.32v-16.672c6.688-0.224 12.064-5.632 12.064-12.352 0-6.688-5.376-12.096-12.064-12.32v-16.672c6.688-0.256 12.064-5.664 12.064-12.352s-5.376-12.128-12.064-12.352v-16.64c6.688-0.256 12.064-5.696 12.064-12.384s-5.376-12.128-12.064-12.32v-16.608h509.344v16.608c-0.16-0.032-0.32-0.032-0.48-0.032-6.912 0-12.544 5.536-12.544 12.384 0 6.88 5.632 12.416 12.544 12.416 0.16 0 0.32-0.032 0.48-0.032v16.64c-0.16 0-0.32-0.032-0.48-0.032-6.912 0-12.544 5.536-12.544 12.416 0 6.848 5.632 12.384 12.544 12.384 0.16 0 0.32 0 0.48-0.032v16.608c-0.16 0-0.32-0.064-0.48-0.064-6.912 0-12.544 5.568-12.544 12.416s5.632 12.416 12.544 12.416c0.16 0 0.32-0.032 0.48-0.064v16.64c-0.16 0-0.32-0.032-0.48-0.032-6.912 0-12.544 5.536-12.544 12.384 0 6.88 5.632 12.448 12.544 12.448 0.16 0 0.32-0.064 0.48-0.064v16.64c-0.16 0-0.32-0.032-0.48-0.032-6.912 0-12.544 5.536-12.544 12.416 0 6.848 5.632 12.416 12.544 12.416 0.16 0 0.32-0.032 0.48-0.032v16.544c-0.16 0-0.32-0.064-0.48-0.064-6.912 0-12.544 5.568-12.544 12.448 0 6.816 5.632 12.384 12.544 12.384 0.16 0 0.32-0.032 0.48-0.032v16.64c-0.16 0-0.32-0.032-0.48-0.032-6.912 0-12.544 5.568-12.544 12.416s5.632 12.416 12.544 12.416c0.16 0 0.32-0.064 0.48-0.064v8.288z" />
<glyph unicode="&#xe650;" d="M370.144 480h-228.288c-21.76 0-39.456-16.8-39.456-37.344v-437.44c0-20.704 17.696-37.216 39.456-37.216h228.32c21.76 0 39.456 16.512 39.456 37.216v437.44c0 20.544-17.728 37.344-39.488 37.344zM256 4.64c-13.792 0-25.216 10.784-25.216 24 0 12.864 11.392 23.68 25.216 23.68 13.952 0 25.184-10.816 25.184-23.68 0-13.248-11.232-24-25.184-24zM380.064 86.208h-248.128v330.784h248.128v-330.784z" />
<glyph unicode="&#xe651;" d="M242.079 0.91l-194.73 194.594c-20.186 20.344-34.819 44.448-41.784 70.495-6.684 24.928-6.412 51.674 2.777 78.974 7.802 23.686 21.451 45.137 39.142 62.546s39.56 30.765 63.506 38.578c27.999 8.637 55.592 8.908 81.232 1.953 23.1-5.859 44.844-17.556 63.777-33.429 19.227 15.885 40.96 27.299 63.788 33.429 25.752 6.684 53.481 6.684 81.344-2.236 23.8-7.53 45.702-21.168 63.506-38.431 17.567-17.409 31.329-38.725 39.278-62.411v0c8.919-27.299 9.484-54.045 2.8-78.974-7.271-26.057-21.868-50.15-42.089-70.495l-1.106-0.949-193.578-193.646c-7.948-7.779-20.073-7.779-27.593 0h-0.271zM279.393 382.996v0h-0.271l-62.411-62.67c-4.742-4.595-12.238-4.595-16.709 0-4.448 4.583-4.448 12.114 0 16.573l39.831 39.831-0.824 0.688c-16.709 16.021-35.947 27.446-56.552 32.877-18.956 4.877-39.007 4.877-59.611-1.806-17.963-5.577-34.536-15.75-47.915-28.97-13.401-13.096-23.833-29.252-29.828-46.808-6.119-19.509-6.39-38.714-1.671-56.552 5.035-19.227 16.167-37.336 31.77-52.927l180.786-180.809 180.809 180.809c15.591 15.591 26.735 33.701 31.883 52.928 4.889 17.838 4.606 36.907-1.807 56.416-5.871 17.691-16.438 33.712-29.524 46.808-13.649 13.368-30.088 23.54-47.914 29.117-20.762 6.401-40.813 6.683-59.894 1.806-17.962-4.606-35.123-14.361-50.15-27.31v0z" />
<glyph unicode="&#xe652;" d="M242.079 0.91l-194.73 194.594c-20.186 20.344-34.819 44.448-41.784 70.495-6.684 24.928-6.412 51.674 2.777 78.974 7.802 23.686 21.451 45.137 39.142 62.546s39.56 30.765 63.506 38.578c27.999 8.637 55.592 8.908 81.232 1.953 23.1-5.859 44.844-17.556 63.777-33.429 19.227 15.885 40.96 27.299 63.788 33.429 25.752 6.684 53.481 6.684 81.344-2.236 23.8-7.53 45.702-21.168 63.506-38.431 17.567-17.409 31.329-38.725 39.278-62.411v0c8.919-27.299 9.484-54.045 2.8-78.974-7.271-26.057-21.868-50.15-42.089-70.495l-1.106-0.949-193.578-193.646c-7.948-7.779-20.073-7.779-27.593 0h-0.271zM279.393 382.996v0z" />
<glyph unicode="&#xe653;" d="M448-32l-192 127.808-192-127.808v512h384z" />
<glyph unicode="&#xe654;" d="M538.656 284.192l-186.112 27.072-83.232 168.64-83.232-168.64-186.080-27.072 134.656-131.264-31.808-185.344 166.464 87.488 166.464-87.488-31.808 185.344 134.688 131.264zM1077.312 284.192l-186.112 27.072-83.232 168.64-83.232-168.64-186.112-27.072 134.656-131.264-31.808-185.344 166.464 87.488 166.464-87.488-31.808 185.344 134.72 131.264zM1615.968 284.416l-186.080 27.072-83.232 168.64-83.232-168.64-186.112-27.072 134.656-131.264-31.808-185.344 166.496 87.488 166.432-87.488-31.776 185.344 134.656 131.264zM2154.624 284.416l-186.080 27.072-83.232 168.64-83.264-168.64-186.080-27.072 134.656-131.264-31.776-185.344 166.464 87.488 166.432-87.488-31.776 185.344 134.656 131.264zM2693.28 284.416l-186.080 27.072-83.232 168.64-83.264-168.64-186.080-27.072 134.656-131.264-31.776-185.344 166.464 87.488 166.432-87.488-31.776 185.344 134.656 131.264z" horiz-adv-x="2694" />
<glyph unicode="&#xe655;" d="M256 464.672c132.384 0 240-107.648 240-240s-107.616-240-240-240c-132.352 0-240 107.616-240 240s107.648 240 240 240zM256 480.672c-141.376 0-256-114.624-256-256 0-141.344 114.624-256 256-256s256 114.624 256 256c0 141.376-114.624 256-256 256v0zM425.024 183.904c0 49.312-47.84 89.536-101.632 89.536-56.928 0-101.792-40.224-101.792-89.536 0-49.44 44.864-89.6 101.792-89.6 11.904 0 23.936 3.168 35.904 6.208l32.8-18.528-8.96 30.848c24.032 18.56 41.888 43.232 41.888 71.072zM290.4 199.328c-5.952 0-11.968 6.112-11.968 12.352 0 6.144 6.048 12.32 11.968 12.32 9.056 0 14.976-6.176 14.976-12.352 0-6.208-5.92-12.32-14.976-12.32zM356.224 199.328c-5.952 0-11.872 6.112-11.872 12.352 0 6.144 5.92 12.32 11.872 12.32 8.96 0 14.976-6.176 14.976-12.352 0-6.208-6.016-12.32-14.976-12.32zM315.808 280.064c3.872 0 7.744-0.288 11.552-0.736-10.368 49.728-61.92 86.688-120.736 86.688-65.792 0-119.68-46.24-119.68-104.96 0-33.92 17.952-61.76 47.904-83.328l-11.968-37.12 41.792 21.632c14.976-3.040 26.976-6.176 41.92-6.176 3.776 0 7.488 0.192 11.2 0.512-2.368 8.192-3.712 16.864-3.712 25.824 0 53.92 44.896 97.664 101.728 97.664zM251.488 313.536c9.024 0 14.976-6.112 14.976-15.392 0-9.248-5.984-15.456-14.976-15.456-8.96 0-17.984 6.208-17.984 15.456 0 9.28 9.024 15.392 17.984 15.392zM167.744 282.688c-8.96 0-18.016 6.208-18.016 15.456 0 9.28 9.056 15.392 18.016 15.392s14.912-6.112 14.912-15.392c0-9.248-5.952-15.456-14.912-15.456z" />
<glyph unicode="&#xe656;" d="M159.136 165.12c-6.080-8.32-18.528-10.496-27.296-4.064-8.64 6.432-10.304 18.816-4.192 27.584 14.784 19.84 34.336 36.32 56.608 47.552 21.76 11.072 45.952 17.312 71.648 17.312 25.632 0 50.176-6.24 71.744-17.312 22.432-11.072 41.952-27.52 56.576-47.552 6.24-8.736 4.64-20.992-4.064-27.36-8.736-6.432-20.864-4.448-27.552 3.872-11.136 15.264-25.632 27.648-42.368 36.256-16.32 8.128-34.56 12.672-54.304 12.672-19.264 0-37.92-4.576-54.080-12.672-16.736-8.64-31.424-21.024-42.72-36.288v0zM255.904 166.88v0c-20.096 0-38.208-8.448-51.456-21.504-13.088-13.12-21.024-31.36-21.024-51.264 0-20.128 7.936-38.496 21.024-51.36 13.248-12.992 31.328-21.312 51.456-21.312 20.032 0 38.304 8.32 51.36 21.312 13.248 12.864 21.184 31.264 21.184 51.36 0 19.872-7.936 38.112-21.184 51.264-13.088 13.056-31.040 21.504-51.36 21.504v0zM279.584 117.696v0c6.080-6.048 9.728-14.368 9.728-23.552 0-9.248-3.648-17.568-9.728-23.744-5.888-5.952-14.24-9.76-23.68-9.76-9.248 0-17.6 3.808-23.392 9.76-6.144 6.176-9.792 14.496-9.792 23.744 0 9.184 3.648 17.504 9.792 23.552 5.824 5.952 14.176 9.76 23.392 9.76 9.44-0.032 17.792-3.84 23.68-9.76v0zM96.736 226.144v0c19.52 23.168 43.872 42.272 71.616 55.232 26.336 12.48 56.16 19.392 87.52 19.392 31.616 0 61.312-6.912 87.744-19.392 27.744-12.96 52.128-32.032 71.488-55.232 6.816-8.32 19.264-9.472 27.424-2.464 8.384 6.816 9.504 19.232 2.496 27.424-23.008 27.616-51.808 50.208-84.672 65.632-31.936 14.88-67.2 23.136-104.48 23.136-37.088 0-72.48-8.224-104.224-23.136-32.896-15.392-61.856-38.016-84.864-65.6-6.816-8.224-5.856-20.64 2.624-27.456 8.096-7.008 20.512-5.824 27.328 2.464v0zM35.168 287.264v0c-6.976-8.16-19.488-8.992-27.744-1.824-7.936 7.104-8.8 19.456-1.824 27.424 31.072 35.648 69.664 64.608 113.152 84.384 41.824 18.72 88.192 29.312 137.152 29.312 48.864 0 95.424-10.592 137.344-29.28 43.488-19.776 81.952-48.736 113.12-84.384 6.944-7.968 6.176-20.32-1.952-27.424-8.064-7.2-20.32-6.336-27.616 1.792-27.264 31.2-61.248 56.832-99.744 74.080-36.736 16.704-77.984 26.176-121.152 26.176-43.232 0-84.224-9.472-120.96-26.176-38.496-17.28-72.48-42.88-99.776-74.080v0z" />
<glyph unicode="&#xe657;" d="M74.016 54.816v0c7.392-7.552 17.888-12.32 29.344-12.32h224.896c11.328 0 21.824 4.736 29.344 12.32 7.52 7.52 12.448 17.984 12.448 29.6v196.96c0 11.168-4.64 21.504-11.872 29.056v0l-0.576 0.416c-7.52 7.552-18.016 12.16-29.344 12.16h-224.896c-11.456 0-21.92-4.608-29.344-12v-0.128c-7.84-7.68-12.448-18.016-12.448-29.472v-196.96c0-11.328 4.608-21.664 11.872-29.312l0.576-0.32zM85.216 281.376v0c0 5.024 1.952 9.504 5.312 12.832v0c3.072 3.36 7.808 5.312 12.832 5.312h224.896c4.896 0 9.504-1.952 12.832-5.312v0c3.36-3.328 5.184-8.096 5.184-12.832v-196.96c0-5.024-1.824-9.792-5.184-12.832-3.328-3.328-7.936-5.44-12.832-5.44h-224.896c-5.024 0-9.472 2.080-12.832 5.152v0.288c-3.36 3.072-5.312 7.808-5.312 12.832v196.96zM415.136 226.048v0c10.912 0 19.552 8.928 19.552 19.84s-8.672 19.552-19.552 19.552c-10.88 0-19.52-8.672-19.52-19.552s8.64-19.84 19.52-19.84v0zM415.136 155.104v0c10.912 0 19.552 8.8 19.552 19.68 0 10.752-8.672 19.712-19.552 19.712s-19.52-8.96-19.52-19.712c-0.032-10.88 8.64-19.68 19.52-19.68v0zM491.968 379.712v0h-319.872l80.16 80.192c4.608 4.736 4.608 12.128 0 16.736-4.48 4.48-12 4.48-16.64 0l-85.024-85.216-85.344 85.216c-4.608 4.48-11.872 4.48-16.64 0-4.48-4.608-4.48-12 0-16.736l80.16-80.192h-109.216c-10.88 0-19.552-8.96-19.552-19.84v-354.080c0-11.040 8.672-19.68 19.552-19.68h472.416c10.912 0 19.392 8.672 19.392 19.68v354.080c0 10.88-8.48 19.84-19.392 19.84v0zM472.128 25.472v0h-432.736v314.848h432.736v-314.848zM389.152 62.336v0c6.72-6.688 15.936-10.912 25.984-10.912 9.504 0 18.464 3.648 25.024 9.792l0.8 1.12c6.56 6.432 10.784 15.648 10.784 25.728 0 10.016-4.224 19.264-10.784 25.824-6.848 6.72-15.776 10.784-25.856 10.784-10.016 0-19.264-4.064-25.984-10.784-6.688-6.56-10.912-15.776-10.912-25.824 0-9.792 3.936-18.592 10.048-25.152l0.896-0.576zM405.92 97.12v0 0c2.528 2.368 5.6 3.904 9.216 3.904 3.648 0 6.72-1.376 9.088-3.744h0.128l-0.128-0.16c2.368-2.368 4.064-5.728 4.064-9.056 0-3.648-1.696-7.008-4.064-9.216l-0.416-0.576c-2.24-1.984-5.312-3.36-8.672-3.36-3.616 0-6.688 1.568-9.216 3.936l-0.544 0.544c-1.984 2.24-3.36 5.312-3.36 8.672-0.032 3.328 1.376 6.688 3.904 9.056v0z" />
<glyph unicode="&#xe658;" d="M243.136 466.848c0 6.624 5.952 11.968 13.344 11.968 7.552 0 13.696-5.344 13.696-11.968v-59.072l44.352 39.616c5.472 5.024 14.144 5.024 19.104 0 5.344-4.48 5.344-12.256 0-16.992l-63.456-56.928v-58.528l68.8 61.696c4.8 4.16 12.192 4.64 17.344 1.312 5.792-2.592 8.992-8.192 7.392-13.984l-25.408-84.448 56.384 29.248 23.424 77.984c2.112 6.496 9.568 10.368 16.64 8.48 7.2-1.568 11.52-8.192 9.632-14.816l-16.384-54.496 57.184 29.696c6.432 3.328 14.784 1.152 18.56-4.768 3.648-5.6 1.376-12.992-5.024-16.448l-57.088-29.536 60.672-14.4c7.328-1.888 11.52-8.512 9.568-14.848-1.92-6.496-9.248-10.368-16.672-8.768l-86.784 21.024-56.256-29.248 93.856-22.624c6.4-1.568 10.464-7.072 9.984-12.8 0.512-5.632-3.552-11.264-9.984-12.672l-93.856-22.752 56.256-29.248 86.784 21.024c7.424 1.568 15.136-2.304 16.672-8.768 1.984-6.656-2.208-13.28-9.248-14.848l-60.96-14.56 57.088-29.696c6.4-3.168 8.672-10.528 5.024-16.48-3.776-5.6-12.128-7.744-18.56-4.288l-56.864 29.536 16.064-54.464c1.92-6.656-2.432-13.28-9.632-14.848-7.072-1.92-14.496 2.016-16.64 8.512l-23.136 77.952-56.672 29.248 25.408-84.48c1.6-5.76-1.632-11.648-7.392-13.984-5.152-3.328-12.544-2.88-17.344 1.312l-68.8 61.664v-58.496l63.456-56.896c5.344-4.736 5.344-12.544 0-17.024-4.992-5.024-13.664-5.024-19.136-0.288l-44.352 39.776v-58.944c0-6.592-6.144-12.224-13.696-12.224-7.392 0-13.344 5.632-13.344 12.224v59.104l-44.544-39.936c-5.248-4.736-13.952-4.736-19.104 0.288-5.472 4.512-5.472 12.288 0 17.024l63.648 56.896v58.496l-69.12-61.664c-4.48-4.192-11.904-4.64-17.344-1.312-5.792 2.304-8.832 8.224-7.072 13.984l25.248 84.48-56.768-29.248-23.136-77.984c-1.952-6.464-9.312-10.4-16.704-8.512-7.072 1.568-11.392 8.192-9.344 14.848l16.064 54.464-57.248-29.536c-6.4-3.456-14.592-1.28-18.304 4.32-3.68 5.952-1.28 13.312 5.152 16.48l56.928 29.696-60.736 14.56c-7.104 1.568-11.584 8.192-9.664 14.848 2.24 6.464 9.312 10.336 16.576 8.768l87.296-21.024 56.224 29.248-94.016 22.72c-6.304 1.44-10.624 7.072-10.144 12.704-0.32 5.76 3.84 11.232 10.112 12.8l93.984 22.624-56.512 29.248-86.976-21.024c-7.264-1.6-14.304 2.304-16.576 8.768-1.952 6.336 2.56 12.96 9.664 14.848l60.736 14.4-56.896 29.536c-6.4 3.456-8.8 10.816-5.152 16.448 3.712 5.92 11.904 8.096 18.336 4.768l57.248-29.696-16.096 54.496c-2.048 6.624 2.24 13.248 9.344 14.816 7.392 1.888 14.784-1.984 16.704-8.48l23.136-77.984 56.736-29.248-25.216 84.448c-1.76 5.792 1.28 11.392 7.392 13.984 5.152 3.328 12.544 2.88 17.024-1.312l69.12-61.856v58.688l-63.648 56.928c-5.472 4.736-5.472 12.544 0 16.992 5.152 5.024 13.856 5.024 19.136 0l44.544-39.616v59.072h-0.032zM393.952 223.2v0l-75.456 18.144-35.040-18.144 35.040-18.176 75.456 18.176zM270.176 202.144v0-36.128l55.072-49.44-20.064 67.552-35.008 18.016zM119.072 223.2v0l75.52-18.176 34.88 18.176-35.040 18.144-75.36-18.144zM243.136 243.936v0 36.448l-55.296 49.408 20.288-67.584 35.008-18.272zM325.248 329.792v0l-55.072-49.28v-36.608l35.008 18.272 20.064 67.616zM187.84 116.576v0l55.328 49.44v36.128l-35.072-18.016-20.256-67.552z" />
<glyph unicode="&#xe659;" d="M475.392 20.704c0-13.312-4.736-25.568-12.608-34.688-8.032-9.376-19.456-15.328-31.84-15.328-12.64 0-24.192 5.952-32.096 15.328-7.648 9.12-12.576 21.376-12.576 34.688l0.32 1.408 9.344 151.936v1.312h-0.16c0 10.336 3.744 19.936 9.696 26.848 3.616 4.288 8.096 7.488 13.12 9.632v71.296c-18.176 3.136-34.336 13.248-46.624 27.84-14.432 17.312-22.976 41.44-22.976 67.584 0 26.304 8.544 49.952 22.976 67.328 14.88 17.888 35.648 28.864 58.976 28.864 22.944 0 43.872-10.976 58.624-28.864l0.672-0.736c14.176-17.312 22.528-40.704 22.528-66.56 0-26.112-8.672-49.952-23.232-67.328v-0.256c-12-14.624-28.352-24.704-46.368-27.84v-71.264c4.704-2.144 9.536-5.344 12.992-9.632 5.888-6.944 9.792-16.512 9.792-26.848l-0.256-1.152 9.504-152.672v-0.8h0.192v-0.096zM24.544 214.176v0h49.088l11.136 8.8v129.44c0 30.304-20.512 67.424-33.792 87.648-10.4-18.912-26.432-49.952-26.432-66.688v-159.2zM85.952 193.12v0-192.192c0-8.544-3.2-15.744-8.8-20.96v-0.288c-5.376-5.664-13.152-8.96-21.408-8.96h-25.28c-8.352 0-16 3.328-21.344 8.928v0.288c-5.472 5.216-8.96 12.448-8.96 20.96v372.48c0 31.456 39.872 95.712 39.872 95.872 3.744 5.472 11.264 7.36 16.736 3.904 1.408-0.896 2.432-2.208 3.296-3.168 0-0.288 49.28-64.832 49.28-117.536v-135.488c0-4.32-2.336-8.288-5.792-10.432l-17.6-13.408zM24.544 184.608v0-183.68c0-1.888 0.576-3.232 1.888-3.904 1.056-1.152 2.496-1.856 4.032-1.856h25.28c1.6 0 3.040 0.672 4.032 1.856 1.312 0.672 1.888 2.016 1.888 3.904v185.6c-0.576 0.544-0.864 1.088-1.6 1.536-0.448 0.608-1.152 1.12-1.888 1.44-0.544 0.128-1.408 0.128-2.272 0.48h-25.728c-1.6-0.352-2.88-0.768-3.776-1.632-0.992-0.736-1.568-2.208-1.856-3.488v-0.256zM270.912 445.408v0c0 6.624 5.632 11.968 12.544 11.968 6.656 0 12-5.344 12-11.968v-111.232c0-9.504-4.032-17.92-10.080-24.256-6.24-6.336-15.040-10.080-24.448-10.080h-15.872c0-0.864 0.288-1.312 0.288-2.432v-85.504c4.768-2.176 9.536-5.376 13.024-9.664 5.92-6.944 9.632-16.512 9.632-26.88l-0.096-1.152 9.504-152.672v-0.8c0-13.312-4.608-25.568-12.128-34.688-8.384-9.376-19.648-15.328-32.224-15.328-12.544 0-23.968 5.952-32.032 15.328-7.648 9.12-12.288 21.376-12.288 34.688v1.408l9.376 151.936v1.28c0 10.336 3.488 19.936 9.536 26.848 3.488 4.32 8.096 7.52 13.152 9.664v85.504c0 1.152 0 1.568 0.288 2.432h-16.032c-9.376 0-18.208 3.744-24.544 10.112-6.080 6.24-10.112 14.752-10.112 24.256v111.232c0 6.624 5.632 11.968 12.288 11.968 6.944 0 12.288-5.344 12.288-11.968v-111.232c0-2.88 1.28-5.344 2.848-7.072 1.888-1.728 3.776-2.752 6.24-3.008v121.312c0 6.624 5.472 11.968 12.128 11.968 6.784 0 12.256-5.344 12.256-11.968v-121.312h9.088v121.312c0 6.624 5.504 11.968 12.128 11.968 6.784 0 12.448-5.344 12.448-11.968v-121.312c2.176 0.256 4.48 1.28 5.92 2.848v0.192c1.888 1.76 2.912 4.192 2.912 7.072v111.2h-0.032zM470.88 430.56v0c-10.336 12.096-24.512 19.904-39.904 19.904-15.456 0-29.664-7.808-40.032-19.904-11.008-13.44-17.632-31.52-17.632-52 0-20.352 6.624-38.688 17.632-51.84 10.368-12.448 24.576-20.224 40.032-20.224 15.392 0 29.568 7.808 39.904 20.224 10.912 13.152 17.504 31.488 17.504 51.84 0 19.936-6.304 38.112-17.024 50.848l-0.48 1.152zM246.496 1.952v0c4.032 4.64 6.528 11.232 6.528 18.784l-9.536 152.192v2.432c0 4.48-1.312 8.224-3.776 10.784-1.568 2.208-4.032 3.488-6.496 3.488h-0.416c-2.464 0-4.768-1.28-6.656-3.456-2.176-2.592-3.744-6.336-3.744-10.816v-2.464l-9.408-152.224c0-7.552 2.464-14.144 6.496-18.784 3.456-4.256 8.512-6.784 13.568-6.784 5.344 0.064 10.016 2.592 13.44 6.848v0zM222.4 174.752v0 0zM444.544 1.952v0c3.744 4.64 6.336 11.232 6.336 18.784l-9.536 152.224v2.4c0 4.48-1.504 8.224-3.744 10.784-1.6 2.176-4.096 3.456-6.528 3.456h-0.416c-2.464 0-4.8-1.28-6.656-3.456-2.176-2.56-3.744-6.304-3.744-10.784v-0.64c0-0.544 0-0.96 0-1.824l-9.408-152.224c0-7.552 2.464-14.144 6.368-18.784 3.744-4.256 8.64-6.784 13.76-6.784 5.28 0.064 9.728 2.592 13.568 6.848v0z" />
<glyph unicode="&#xe65a;" d="M148.224 261.376l-0.512-0.544-93.344-98.208c-11.424-12.096-17.216-28.064-17.216-44.448 0-16.192 5.792-32.224 17.216-44.288v0l0.672-0.928c11.456-11.488 26.592-17.44 41.568-17.44 15.296 0 30.56 6.176 42.4 18.368l105.312 110.976 0.512 0.128 113.376 119.424c5.088 5.28 7.744 12.608 7.744 19.488 0 7.232-2.656 14.144-7.744 19.648-5.184 5.28-11.712 7.776-18.624 7.776-6.816 0-13.664-2.496-18.688-7.904l-162.912-171.68c-7.36-7.328-19.232-7.328-26.336 0-7.328 7.744-7.328 19.904 0 27.68l163.072 171.552c12.256 12.96 28.576 19.488 44.864 19.488 16.352 0 32.416-6.528 44.8-19.488 12.32-13.024 18.4-30.048 18.4-47.072 0-16.864-6.080-34.144-18.4-47.168l-113.504-119.104-0.256-0.384-0.288-0.32-105.28-110.528c-18.976-19.968-43.712-29.632-68.48-29.632-24.48 0-48.672 9.408-67.392 28.48l-1.024 1.152c-18.944 19.616-28.16 45.952-28.16 71.776 0 26.016 9.216 52.448 28.16 72.096l105.472 110.944 0.64 0.288 132.704 139.456c24.448 26.016 56.832 39.040 89.248 39.040 32.128 0 64.512-13.024 88.992-39.040 24.704-25.44 36.832-59.488 36.832-93.376 0-34.016-12.128-67.936-36.832-93.824l-182.72-192.032c-7.136-7.584-19.104-7.584-26.080 0-7.36 7.616-7.36 20.096 0 27.552l182.72 192c17.152 18.4 25.856 42.208 25.856 66.304 0 23.936-8.672 48-25.856 66.112-17.376 18.112-40.288 27.264-62.912 27.264-22.912 0-45.856-9.12-63.2-27.264l-144.8-152.32z" />
<glyph unicode="&#xe65b;" d="M90.88 337.952h127.936c6.592 0 12.896-3.296 17.312-8.352 4.512-5.024 7.264-11.968 7.264-19.84v-15.712l-0.288-2.848h20.864l-0.128 2.816v15.744c0 7.904 2.72 14.816 7.392 19.84l0.544 0.96c4.416 4.384 10.464 7.392 16.8 7.392h127.872c6.88 0 12.896-3.296 17.312-8.352h0.256c4.288-5.024 7.040-11.968 7.040-19.84v-18.56h26.048c-0.672 12.448-2.176 24.096-3.424 35.584-1.376 9.44-2.592 18.912-3.296 28.96-2.336 24.256-1.376 47.872 3.712 71.456-21.984-6.624-45.184-8.832-67.68-8.832-49.088 0-90.848 34.336-142.848 34.336-47.648 0-85.92-26.752-131.904-32.416-25.952-3.328-53.28-0.672-78.528 6.912 5.504-23.616 5.92-47.2 3.712-71.456-0.8-10.048-1.792-19.52-3.168-28.96-1.504-11.488-2.72-23.168-3.68-35.584h26.208l-0.16 2.816v15.744c0 7.904 2.752 14.816 7.296 19.84l0.8 0.96c4.256 4.384 10.432 7.392 16.736 7.392v0zM490.432 290.56v0c8.384-2.528 14.688-11.008 14.688-21.536v-139.776c0-12.16-8.768-22.016-19.488-22.016h-26.624v-29.6c0-7.424-5.216-13.088-11.808-13.088h-43.392c-6.304 0-11.648 5.664-11.648 13.088v29.6h-277.248v-29.6c0-7.424-5.088-13.088-11.392-13.088h-43.488c-6.464 0-11.392 5.664-11.392 13.088v29.6h-26.912c-10.72 0-19.488 9.888-19.488 22.016v139.776c0 10.528 6.304 19.008 14.4 21.536 0.96 13.856 2.624 27.072 4.256 39.808 1.088 9.6 2.336 19.232 3.008 27.872 2.624 30.24 0.288 57.28-10.016 85.472-1.344 3.488-1.216 7.424 0.416 11.040 2.88 6.624 9.888 8.96 15.52 5.824 4.8-2.816 10.144-5.024 16.48-6.944 23.040-7.392 48.832-9.92 72.736-6.912 46.816 5.984 85.344 32.736 134.528 32.736 52.16 0 94.848-34.656 142.848-34.656 21.28 0 43.936 2.208 64.384 8.8 6.304 1.92 11.936 4.256 16.48 6.944 3.040 1.568 6.592 1.888 9.632 0.64 6.144-2.976 8.896-10.688 6.432-17.472-9.92-27.712-12.768-55.872-9.92-85.472 0.576-8.672 1.92-18.272 3.040-27.872 1.504-12.736 3.296-25.952 3.968-39.808v0zM435.52 107.232v0h-20.192v-16.256h20.192v16.256zM91.712 107.232v0h-20.032v-16.256h20.032v16.256zM466.4 246.976v0h-425.44v-95.392h425.44v95.392zM218.816 311.328v0c0.288 0 0.832-0.128 1.088-0.288v-0.16c0.128-0.32 0.288-0.8 0.288-1.12v-15.712c0-0.32-0.128-0.96-0.288-0.96l-0.256-0.32c-0.288-0.16-0.544-0.32-0.832-0.32h-127.936c-0.544 0-0.832 0.32-1.248 0.448v0.192c-0.288 0-0.288 0.64-0.288 0.96v15.712c0 0.32 0 0.8 0.288 1.12l0.416 0.32c0 0.128 0.576 0.128 0.832 0.128h127.936zM416.448 311.328v0c0.576 0 0.832-0.128 1.088-0.288v-0.16c0.16-0.32 0.288-0.8 0.288-1.12v-15.712c0-0.32-0.128-0.96-0.288-0.96l-0.256-0.32c-0.288-0.16-0.576-0.32-0.832-0.32h-127.872c-0.288 0-0.832 0.32-1.12 0.448v0.192c-0.288 0-0.416 0.64-0.416 0.96v15.712c0 0.32 0.128 0.8 0.416 1.12l0.256 0.32c0.288 0.128 0.576 0.128 0.864 0.128h127.872z" />
<glyph unicode="&#xe65c;" d="M142.432 249.696l69.056-134.816c0 0 112.224 273.856 289.184 365.12-4.32-65.216-21.6-121.696 8.64-191.2-77.696-17.44-237.376-213.056-289.184-308.64-73.376 91.264-159.712 160.768-220.128 182.56l142.432 86.976z" />
<glyph unicode="&#xe65d;" d="M0.632 224.226c0-141.023 114.311-255.334 255.334-255.334 141 0 255.334 114.311 255.334 255.334 0 141.012-114.334 255.334-255.334 255.334-141.023-0.012-255.334-114.322-255.334-255.334zM463.42 224.226c0-114.57-92.882-207.464-207.453-207.464-114.559 0-207.464 92.894-207.464 207.464 0 114.56 92.905 207.453 207.464 207.453 114.571 0 207.453-92.894 207.453-207.453zM240.827 331.3l-91.945-91.968c-8.976-8.964-8.976-23.529 0-32.515 8.964-8.964 23.517-8.964 32.504 0l52.702 52.713v-128.401c0-12.701 10.297-22.986 22.975-22.986 12.735 0 23.020 10.285 23.020 22.986v128.412l52.702-52.713c8.976-8.964 23.529-8.964 32.504 0 4.482 4.505 6.752 10.398 6.752 16.257 0 5.882-2.258 11.764-6.752 16.246l-91.945 91.968c-8.964 8.987-23.551 8.987-32.515 0z" />
<glyph unicode="&#xe65e;" d="M511.288 224.214c0 141.023-114.311 255.334-255.334 255.334-141 0-255.334-114.311-255.334-255.334 0-141.012 114.334-255.334 255.334-255.334 141.023 0 255.334 114.322 255.334 255.334zM48.502 224.214c0 114.57 92.882 207.464 207.453 207.464 114.56 0 207.453-92.894 207.453-207.464 0-114.56-92.905-207.464-207.464-207.464s-207.442 92.894-207.442 207.464zM271.094 117.129l91.957 91.968c8.976 8.964 8.976 23.529 0 32.515-8.976 8.964-23.529 8.964-32.504 0l-52.713-52.724 0.012 128.401c0 12.701-10.308 22.987-22.987 22.987-12.735 0-23.009-10.285-23.009-22.987v-128.401l-52.702 52.724c-8.976 8.964-23.529 8.964-32.504 0-4.482-4.505-6.751-10.398-6.751-16.257 0-5.882 2.258-11.764 6.751-16.247l91.946-91.968c8.953-8.998 23.529-8.998 32.504-0.012z" />
<glyph unicode="&#xe65f;" d="M255.966 479.548c-141.023 0-255.334-114.311-255.334-255.334 0-141 114.311-255.334 255.334-255.334 141.012 0 255.334 114.334 255.334 255.334 0 141.023-114.322 255.334-255.334 255.334zM255.966 16.772c-114.57 0-207.464 92.882-207.464 207.453 0 114.559 92.894 207.453 207.464 207.453 114.56 0 207.464-92.905 207.464-207.464 0-114.57-92.905-207.442-207.464-207.442zM363.040 239.365l-91.968 91.945c-8.964 8.976-23.529 8.976-32.515 0-8.964-8.964-8.964-23.517 0-32.504l52.724-52.702h-128.389c-12.701 0-22.987-10.297-22.987-22.975 0-12.735 10.285-23.009 22.987-23.009h128.401l-52.724-52.702c-8.964-8.976-8.964-23.529 0-32.504 4.505-4.482 10.398-6.752 16.257-6.752 5.882 0 11.764 2.258 16.247 6.752l91.968 91.945c8.987 8.953 8.987 23.529 0 32.504z" />
<glyph unicode="&#xe660;" d="M371.466 111.902h-227.821c-6.39 0-11.821-5.295-11.821-11.832 0-6.548 5.419-11.527 11.821-11.527h227.831c6.401 0 11.685 4.979 11.685 11.527s-5.284 11.832-11.697 11.832v0zM131.826 265.603v0c0-6.401 5.419-11.832 11.821-11.832h227.832c6.401 0 11.685 5.43 11.685 11.832 0 6.537-5.284 11.82-11.685 11.82h-227.832c-6.401 0-11.821-5.295-11.821-11.82v0zM474.68 330.826v0l-141.881 141.723c-3.33 3.478-8.332 5.702-13.615 5.702h-232.28c-14.192 0-27.547-5.837-36.997-15.298-9.461-9.596-15.444-22.67-15.444-37.144v-404.61c0-14.462 5.973-27.525 15.444-36.986h0.282c9.438-9.461 22.523-15.422 36.715-15.422h341.183c14.034 0 26.983 5.702 36.591 14.869l0.26 0.553h0.124c9.619 9.473 15.433 22.524 15.433 36.986v295.718c0.012 5.012-2.055 10.014-5.815 13.909v0zM330.868 419.283v0l90.399-90.41h-69.399c-5.408 0-10.985 2.247-14.88 5.848l-0.271 0.836c-3.906 3.613-5.837 8.614-5.837 14.18v69.546h-0.012zM441.307 21.199v0c0-3.59-1.411-6.944-3.918-9.303v-0.135c-2.484-2.371-5.848-3.624-9.303-3.624h-341.183c-3.624 0-6.683 1.411-9.326 3.624l0.135 0.135c-2.495 2.36-3.895 5.712-3.895 9.303v404.621c0 3.624 1.4 6.966 3.895 9.325 2.507 2.518 5.837 4.042 9.19 4.042h220.583v-89.439c0-11.968 4.584-22.671 12.238-30.732l0.824-0.7c7.925-8.072 19.193-13.074 31.296-13.074h89.45v-284.045h0.012zM371.466 194.522v0h-227.821c-6.39 0-11.821-5.148-11.821-11.685s5.419-11.685 11.821-11.685h227.831c6.401 0 11.685 5.148 11.685 11.685s-5.284 11.685-11.697 11.685v0z" />
<glyph unicode="&#xe661;" d="M302.379 57.642c-5.002-0.091-8.953-4.008-8.953-8.953v-31.273c0.17-4.945 4.099-8.863 8.964-8.953 4.967-0.067 9.055 4.008 8.93 8.93v31.307c0 4.9-3.952 8.851-8.942 8.942zM263.79 57.485c-4.911 0.135-8.93-3.884-8.941-8.93v-70.912c0-4.787 3.963-8.727 8.795-8.772 5.002 0.045 9.021 4.075 8.942 8.93v70.913c-0.079 4.979-4.019 8.93-8.795 8.772zM428.849 225.513c-8.32 12.972-19.724 23.766-33.069 31.601l-0.079 2.901 0.237 1.107c-0.17 45.296-12.25 87.915-33.395 124.551-21.835 37.923-53.345 69.433-91.019 91.336l-0.147 0.147-0.305-0.012c-4.313 2.552-10.048 2.766-14.892 0-37.833-21.891-69.343-53.401-91.325-91.325-21.157-36.952-33.294-79.312-33.294-124.63v-0.282l-0.012-3.884c-13.186-7.666-24.646-18.538-32.989-31.668-9.901-15.094-15.806-33.351-15.784-53.017 0.067-21.372 7-41.276 18.549-57.286 11.922-16.382 28.688-28.97 48.276-35.608 1.344-0.282 3.048-0.791 4.528-0.791 8.118-0.237 15.049 6.086 15.332 14.158 0.237 8.399 2.111 16.359 5.001 23.438l1.423 3.217c2.292-3.353 4.753-6.706 7.282-9.991 6.853-8.93 14.451-17.725 22.659-25.639 2.608-3.195 6.616-5.272 11.155-5.182l93.402 0.135c3.726-0.158 7.474 1.185 10.443 4.166 8.49 8.208 16.235 17.138 23.562 26.531 2.517 3.127 4.742 6.548 7.113 9.834l1.355-3.127c3.060-7.237 4.854-15.151 5.069-23.246 0.158-1.321 0.305-2.664 0.734-4.031 2.675-7.745 11.041-11.911 18.752-9.529 19.667 6.548 36.602 19.295 48.66 35.699 11.482 15.919 18.188 35.281 18.481 56.145l0.147 1.185c-0.057 19.452-5.803 37.709-15.851 53.096zM264.253 280.269c-31.126 0-56.359 25.233-56.359 56.36s25.233 56.359 56.359 56.359 56.359-25.233 56.359-56.359-25.233-56.36-56.36-56.36zM224.987 57.552c-4.855 0.091-8.953-4.008-8.863-8.863l0.124-31.284c-0.056-4.674 4.030-8.772 8.806-8.795 4.832-0.045 8.851 3.997 8.874 8.885l-0.012 31.137c0 4.911-4.019 8.942-8.93 8.919z" />
<glyph unicode="&#xe662;" d="M287.936 224c0-17.638-14.298-31.936-31.936-31.936s-31.936 14.298-31.936 31.936c0 17.638 14.298 31.936 31.936 31.936s31.936-14.298 31.936-31.936z" />
<glyph unicode="&#xe663;" d="M117.653 460.141l74.977-96.62 0.971-1.388c3.466-4.866 6.108-10.003 7.632-15.547 1.524-6.119 1.795-12.498 0.824-19.159-0.824-6.379-2.778-12.498-6.108-17.906l-0.824-1.253c-3.060-4.866-7.237-9.168-12.227-12.498l-1.107-1.107-36.376-26.373c-2.359-5.419-5.137-16.935 4.866-31.25 15.964-23.167 34.017-44.55 53.718-64.138v0c19.859-19.859 41.095-37.878 64.138-53.717 14.428-9.991 26.103-7.226 31.24-4.99l27.356 37.46h-0.147c4.031 5.419 8.738 9.721 14.011 13.063 5.419 3.32 11.663 5.408 18.064 6.379h0.7c6.243 0.824 12.622 0.271 18.471-1.118l1.106-0.271c5.555-1.671 10.827-4.448 15.829-8.332l96.642-74.819 1.366-1.524c5.002-4.166 8.897-8.761 11.663-14.305v0c3.060-6.277 4.866-12.938 5.137-19.859 0.271-7.079-0.7-13.887-3.342-20.13v-0.135c-2.495-6.401-6.526-11.956-11.798-16.811-6.096-5.961-13.875-11.786-23.043-17.341l-1.118-0.565c-8.874-5.272-19.442-10.262-31.646-14.428-53.041-17.5-109.671-14.304-164.089 3.59-57.477 19.159-112.459 55.129-157.845 100.526-45.126 45.103-81.209 100.368-100.379 157.833-18.041 54.293-21.101 110.924-3.601 163.953 4.166 12.916 9.438 23.596 14.722 32.764l0.271 0.135h-0.282c5.679 9.168 11.662 16.811 17.488 23.054 4.866 5.408 10.556 9.156 16.935 11.798l1.524 0.553c5.972 1.942 12.069 3.060 18.742 2.778 7.225-0.271 13.605-2.089 19.712-5.272l1.106-0.553 14.722-12.475zM117.653 460.005v0 0zM117.653 460.141v0 0z" />
<glyph unicode="&#xe664;" d="M119.832 460.243l74.559-96.089 0.959-1.389c3.444-4.832 6.074-9.935 7.587-15.456 1.524-6.085 1.795-12.43 0.824-19.058-0.824-6.345-2.755-12.43-6.074-17.805l-0.824-1.242c-3.048-4.832-7.191-9.111-12.16-12.43l-1.107-1.095-36.173-26.227c-2.349-5.386-5.114-16.834 4.832-31.070 15.874-23.043 33.825-44.313 53.424-63.765v-0.012c19.746-19.746 40.87-37.686 63.777-53.413 14.349-9.947 25.967-7.192 31.070-4.967l27.186 37.257h-0.135c3.997 5.397 8.694 9.664 13.932 12.983 5.397 3.308 11.584 5.397 17.962 6.345h0.688c6.209 0.824 12.555 0.271 18.369-1.106l1.095-0.271c5.521-1.659 10.771-4.414 15.75-8.287l96.1-74.401 1.366-1.524c4.967-4.144 8.84-8.704 11.584-14.214v0c3.060-6.232 4.844-12.86 5.115-19.746 0.271-7.034-0.7-13.819-3.32-20.017v-0.135c-2.484-6.356-6.491-11.877-11.731-16.709-6.063-5.927-13.808-11.731-22.918-17.251l-1.106-0.553c-8.829-5.238-19.329-10.206-31.465-14.349-52.747-17.398-109.050-14.226-163.174 3.567-57.161 19.058-111.839 54.813-156.976 99.972-44.877 44.855-80.757 99.792-99.814 156.953-17.928 53.977-20.954 110.303-3.567 163.038 4.143 12.848 9.393 23.472 14.632 32.583l0.271 0.135h-0.259c5.656 9.111 11.595 16.709 17.387 22.919 4.832 5.374 10.499 9.111 16.844 11.741l1.524 0.542c5.939 1.931 12.001 3.037 18.629 2.766 7.18-0.282 13.525-2.077 19.6-5.25l1.106-0.542 14.632-12.43zM163.738 340.411v0l-74.695 95.942h0.147c-0.7 0.971-1.388 1.795-2.213 2.066l-0.677 0.565c-0.982 0.406-2.078 0.678-3.737 0.678-1.106 0.147-2.213 0-3.049-0.271l-0.542-0.135c-1.118-0.553-1.93-1.377-3.037-2.349-4.144-4.267-8.287-9.811-12.431-16.563-4.132-6.762-8.005-15.050-11.177-24.443-14.767-44.438-12.013-92.487 3.59-138.878 16.98-51.358 49.416-100.774 90.433-141.768 41.13-41.288 90.557-73.475 141.632-90.444 46.526-15.467 94.712-18.358 139.013-3.873 9.247 3.32 16.844 6.921 23.754 10.906l0.688 0.565c6.909 3.997 12.295 8.151 16.856 12.555 0.824 0.7 1.513 1.649 1.92 2.766v0 0.271c0.418 0.824 0.824 1.93 0.565 3.579 0 1.389-0.282 2.495-0.824 3.579v0.158c-0.418 0.678-0.824 1.219-1.649 2.077l-0.824 0.813-95.818 74.276v0.135c-0.971 0.7-1.93 0.971-2.766 1.524h-0.271c-1.095 0.271-2.202 0.418-3.308 0.271h-0.26c-1.4-0.271-2.495-0.824-3.32-1.377v0c-0.959-0.271-1.649-1.106-2.484-2.213v0.022l-29.264-40.305c-1.817-2.337-3.884-4.403-6.368-5.803-0.26-0.26-34.524-24.579-76.207 4.708-25.256 17.387-48.321 36.726-69.298 57.692h0.136c-20.852 21.123-40.452 44.042-57.85 69.038-28.981 41.829-4.697 75.925-4.697 76.207 1.388 2.213 3.184 4.144 5.25 5.656l39.752 28.993 1.253 1.095c0.959 0.417 1.524 1.242 2.066 1.93l0.553 0.542c0.406 0.824 0.7 2.077 0.835 3.308 0.271 1.242 0.136 2.349-0.136 3.466-0.136 0.688-0.553 1.377-0.959 2.202l-0.587 0.836zM119.832 460.107v0 0zM119.832 460.243v0 0z" />
</font>
</defs>
</svg>
