<?xml version="1.0" standalone="no"?>
<!DOCTYPE svg PUBLIC "-//W3C//DTD SVG 1.1//EN" "http://www.w3.org/Graphics/SVG/1.1/DTD/svg11.dtd" >
<svg xmlns="http://www.w3.org/2000/svg">
<metadata>Generated by IcoMoon</metadata>
<defs>
<font id="hitour" horiz-adv-x="512">
<font-face units-per-em="512" ascent="480" descent="-32" />
<missing-glyph horiz-adv-x="512" />
<glyph unicode="&#x20;" d="" horiz-adv-x="256" />
<glyph unicode="&#xe600;" d="M153.632 341.76l-0.032-235.52 204.8 117.76z" />
<glyph unicode="&#xe601;" d="M373.76 326.368l-235.52 0.032 117.76-204.8z" />
<glyph unicode="&#xe602;" d="M358.368 341.76l0.032-235.52-204.8 117.76z" />
<glyph unicode="&#xe603;" d="M138.24 121.6h235.52l-117.792 204.8z" />
<glyph unicode="&#xe604;" d="M512 288h-192v192h-128v-192h-192v-128h192v-192h128v192h192z" />
<glyph unicode="&#xe605;" d="M0 288h512v-128h-512z" />
<glyph unicode="&#xe606;" d="M464.952 394.002c-48.595 44.617-127.403 44.617-175.998 0l-32.954-30.284-32.99 30.284c-48.595 44.617-127.366 44.617-175.962 0-54.681-50.176-54.681-131.489 0-181.702l208.952-191.785 208.952 191.785c54.682 50.194 54.682 131.526 0 181.702z" />
<glyph unicode="&#xe607;" d="M464.952 394.039c-48.595 44.581-127.403 44.581-175.998 0l-32.954-30.284-32.99 30.284c-48.595 44.581-127.366 44.581-175.962 0-54.681-50.194-54.681-131.489 0-181.702l208.952-191.803 208.952 191.803c54.682 50.176 54.682 131.489 0 181.702zM434.032 242.167l-178.032-166.079-177.996 166.079c-17.967 16.459-24.907 38.132-24.907 61.040 0 22.853 4.014 41.619 21.982 58.097 15.841 14.57 37.151 22.563 59.932 22.563 22.817 0 44.126-13.843 59.968-28.394l61.040-53.083 61.039 53.083c15.841 14.57 37.115 28.394 59.931 28.394s44.127-7.993 59.986-22.563c17.931-16.477 21.909-35.262 21.981-58.097 0-22.873-6.976-44.581-24.906-61.040z" />
<glyph unicode="&#xe608;" d="M184.96 329.472v68.608l-184.96-165.248 184.96-171.296v71.136l-108.16 100.144 108.16 96.64zM312.96 299.104v98.976l-184.96-165.248 184.96-171.296v111.568c84.304 0 135.472-10.8 199.040-123.184 0 0-9.392 249.184-199.040 249.184z" />
<glyph unicode="&#xe609;" d="M0 160q0 56.864 15.136 95.136 46.288 115.136 250 115.136h64v73.136q0 7.424 5.424 12.864t12.864 5.424 12.864-5.424l146.288-146.288q5.424-5.424 5.424-12.864t-5.424-12.864l-146.288-146.288q-5.424-5.424-12.864-5.424t-12.864 5.424-5.424 12.864v73.136h-64q-28 0-50.144-1.712t-44-6.144-38-12.144-30.144-19.856-22.864-28.864-13.856-39.568-5.008-51.712q0-15.712 1.424-35.136 0-1.712 0.72-6.72t0.72-7.568q0-4.288-2.432-7.136t-6.72-2.864q-4.576 0-8 4.864-2 2.576-3.712 6.288t-3.856 8.576-3.008 6.864q-36.288 81.424-36.288 128.864z" />
<glyph unicode="&#xe60a;" d="M256 367.36c-167.968 0-256-123.728-256-143.36s88.032-143.36 256-143.36 256 123.728 256 143.36-88.032 143.36-256 143.36zM256 113.712c-62.816 0-113.76 49.376-113.76 110.288s50.944 110.288 113.76 110.288c62.848 0 113.792-49.376 113.792-110.288s-50.944-110.288-113.792-110.288zM256 224c-10.4 11.424 16.992 55.12 0 55.12-31.408 0-56.88-24.672-56.88-55.12s25.472-55.136 56.88-55.136c31.44 0 56.912 24.704 56.912 55.136 0 13.984-48.032-9.728-56.912 0z" />
<glyph unicode="&#xe60b;" d="M497.221 49.178l-120.811 120.811c18.223 29.953 28.714 65.060 28.714 102.688 0 109.221-94.675 203.876-203.916 203.876-109.221 0-197.781-88.56-197.781-197.781 0-109.24 94.635-203.916 203.876-203.916 36.328 0 70.338 9.851 99.59 26.956l121.45-121.49c11.93-11.889 31.171-11.889 43.041 0l30.154 30.113c11.869 11.889 7.553 26.855-4.316 38.725zM64.293 278.79c0 75.612 61.285 136.937 136.897 136.937 75.651 0 143.030-67.399 143.030-143.030s-61.284-136.937-136.936-136.937-143.011 67.399-143.011 143.030z" />
<glyph unicode="&#xe60c;" d="M469.344 432h-69.344v32c0 8.848-7.152 16-16 16s-16-7.152-16-16v-32h-96v32c0 8.848-7.168 16-16 16s-16-7.152-16-16v-32h-96v32c0 8.848-7.168 16-16 16s-16-7.152-16-16v-32h-69.328c-23.568 0-42.672-19.088-42.672-42.656v-378.672c0-23.568 19.104-42.672 42.672-42.672h426.672c23.568 0 42.656 19.104 42.656 42.672v378.672c0 23.568-19.088 42.656-42.656 42.656zM480 10.672c0-5.888-4.784-10.672-10.656-10.672h-426.672c-5.888 0-10.672 4.784-10.672 10.672v378.672c0 5.872 4.784 10.656 10.672 10.656h69.328v-32c0-8.848 7.168-16 16-16s16 7.152 16 16v32h96v-32c0-8.848 7.168-16 16-16s16 7.152 16 16v32h96v-32c0-8.848 7.152-16 16-16s16 7.152 16 16v32h69.344c5.872 0 10.656-4.784 10.656-10.656v-378.672zM112 288h64v-48h-64zM112 208h64v-48h-64zM112 128h64v-48h-64zM224 128h64v-48h-64zM224 208h64v-48h-64zM224 288h64v-48h-64zM336 128h64v-48h-64zM336 208h64v-48h-64zM336 288h64v-48h-64z" />
<glyph unicode="&#xe60d;" d="M448 373.328q9.168 0 15.248-6.080t6.080-15.248q0-9.008-6.16-15.168l-256-256q-6.16-6.16-15.168-6.16t-15.168 6.16l-128 128q-6.16 6.16-6.16 15.168 0 9.168 6.080 15.248t15.248 6.080q9.008 0 15.168-6.16l112.832-113.008 240.832 241.008q6.16 6.16 15.168 6.16z" />
<glyph unicode="&#xe60e;" d="M405.328 394.672q9.168 0 15.248-6.080t6.080-15.248q0-9.008-6.16-15.168l-134.336-134.16 134.336-134.16q6.16-6.16 6.16-15.168 0-9.168-6.080-15.248t-15.248-6.080q-9.008 0-15.168 6.16l-134.16 134.336-134.16-134.336q-6.16-6.16-15.168-6.16-9.168 0-15.248 6.080t-6.080 15.248q0 9.008 6.16 15.168l134.336 134.16-134.336 134.16q-6.16 6.16-6.16 15.168 0 9.168 6.080 15.248t15.248 6.080q9.008 0 15.168-6.16l134.16-134.336 134.16 134.336q6.16 6.16 15.168 6.16z" />
<glyph unicode="&#xe60f;" d="M479.68 370.896c-1.536 25.12-22.192 45.056-47.68 45.056h-48v16.032c0 26.512-21.504 48-48 48h-160c-26.512 0-48-21.488-48-48v-16.016h-48c-25.52 0-46.16-19.936-47.696-45.056h-0.304v-34.928c0-17.664 14.336-32 32-32v0-272c0-35.344 28.656-64 64-64h256c35.344 0 64 28.656 64 64v272c17.664 0 32 14.336 32 32v34.912h-0.32zM160 431.968c0 8.848 7.152 16 16 16h160c8.848 0 16-7.152 16-16v-16h-192v16zM416 31.968c0-17.632-14.368-32-32-32h-256c-17.648 0-32 14.368-32 32v272h320v-272zM448 351.984v-16h-384v31.984c0 8.848 7.152 16 16 16h352c8.848 0 16-7.152 16-16v-15.984zM144 31.904h32c8.848 0 16 7.152 16 16v208c0 8.848-7.152 16-16 16h-32c-8.848 0-16-7.152-16-16v-208c0-8.848 7.152-16 16-16zM144 255.92h32v-208h-32v208zM240 31.904h32c8.848 0 16 7.152 16 16v208c0 8.848-7.152 16-16 16h-32c-8.848 0-16-7.152-16-16v-208c0-8.848 7.152-16 16-16zM240 255.92h32v-208h-32v208zM336 31.904h32c8.848 0 16 7.152 16 16v208c0 8.848-7.152 16-16 16h-32c-8.848 0-16-7.152-16-16v-208c0-8.848 7.152-16 16-16zM336 255.92h32v-208h-32v208z" />
<glyph unicode="&#xe610;" d="M980.384 173.504h-719.84l272.288-204.448h-192.512l-340.32 255.52 340.352 255.52h192.512l-272.32-204.416h719.84v-102.176z" horiz-adv-x="800" />
<glyph unicode="&#xe611;" d="M-180.384 173.504h719.84l-272.288-204.448h192.512l340.32 255.52-340.352 255.52h-192.512l272.32-204.416h-719.84v-102.176z" horiz-adv-x="800" />
<glyph unicode="&#xe612;" d="M-1.419 9.676v150.020q0 8.701 6.357 15.077t15.077 6.357h150.020q8.701 0 15.077-6.357t6.357-15.077-6.357-15.077l-45.869-45.868q23.779-22.11 53.913-34.149t62.615-12.058q44.875 0 83.712 21.772t62.277 59.933q3.676 5.7 17.74 39.174 2.682 7.707 10.051 7.707h64.303q4.35 0 7.538-3.188t3.188-7.538q0-1.669-0.337-2.344-21.435-89.75-89.75-145.502t-160.072-55.751q-48.888 0-94.607 18.415t-81.536 52.582l-43.206-43.205q-6.357-6.357-15.077-6.357t-15.077 6.357-6.357 15.077zM4.601 277.576v2.343q21.771 89.75 90.406 145.502t160.728 55.752q48.889 0 95.094-18.584t82.043-52.413l43.524 43.205q6.357 6.357 15.077 6.357t15.077-6.357 6.357-15.077v-150.020q0-8.701-6.357-15.077t-15.077-6.357h-150.020q-8.701 0-15.077 6.357t-6.357 15.077 6.357 15.077l46.207 46.207q-49.563 45.868-116.867 45.868-44.875 0-83.712-21.772t-62.278-59.933q-3.676-5.701-17.74-39.174-2.681-7.708-10.052-7.708h-66.647q-4.35 0-7.538 3.188t-3.188 7.538z" />
<glyph unicode="&#xe613;" d="M0 123.424v237.712q0 34 24.144 58.144t58.144 24.144h237.712q18 0 33.424-7.136 4.288-2 5.136-6.576 0.864-4.864-2.576-8.288l-14-14q-4-4-9.136-2.288-6.576 1.712-12.864 1.712h-237.712q-18.864 0-32.288-13.424t-13.424-32.288v-237.712q0-18.864 13.424-32.288t32.288-13.424h237.712q18.864 0 32.288 13.424t13.424 32.288v36q0 3.712 2.576 6.288l18.288 18.288q4.288 4.288 10 2t5.712-8.288v-54.288q0-34-24.144-58.144t-58.144-24.144h-237.712q-34 0-58.144 24.144t-24.144 58.144zM182.864 114.288v82.288l192 192 82.288-82.288-192-192h-82.288zM210.288 169.136h27.424v-27.424h16l33.136 33.136-43.424 43.424-33.136-33.136v-16zM269.712 237.712q4.576-4.576 9.424 0.288l100 100q4.864 4.864 0.288 9.424t-9.424-0.288l-100-100q-4.864-4.864-0.288-9.424zM393.136 406.864l26.288 26.288q8 8 19.424 8t19.424-8l43.424-43.424q8-8 8-19.424t-8-19.424l-26.288-26.288z" />
<glyph unicode="&#xe614;" d="M0 32v384q0 11.424 8 19.424t19.424 8h265.136q11.424 0 25.136-5.712t21.712-13.712l80-80q8-8 13.712-21.712t5.712-25.136v-265.136q0-11.424-8-19.424t-19.424-8h-384q-11.424 0-19.424 8t-8 19.424zM36.576 41.136h36.576v118.864q0 11.424 8 19.424t19.424 8h237.712q11.424 0 19.424-8t8-19.424v-118.864h36.576v256q0 4-2.864 11.008t-5.712 9.856l-80.288 80.288q-2.864 2.864-9.712 5.712t-11.136 2.864v-118.864q0-11.424-8-19.424t-19.424-8h-164.576q-11.424 0-19.424 8t-8 19.424v118.864h-36.576v-365.712zM109.712 41.136h219.424v109.712h-219.424v-109.712zM182.864 306.288q0-3.712 2.72-6.432t6.432-2.72h54.864q3.712 0 6.432 2.72t2.72 6.432v91.424q0 3.712-2.72 6.432t-6.432 2.72h-54.864q-3.712 0-6.432-2.72t-2.72-6.432v-91.424z" />
<glyph unicode="&#xe615;" d="M435.2 454.4h-230.4c-28.16 0-50.688-23.040-50.688-51.2v-76.8h50.688v76.8h230.4v-358.4h-230.4v51.2h-50.688v-51.2c0-28.16 22.528-51.2 50.688-51.2h230.4c28.16 0 51.2 23.040 51.2 51.2v358.4c0 28.16-23.040 51.2-51.2 51.2zM256 111.36l102.4 99.84-102.4 99.84v-61.44h-230.4v-76.8h230.4v-61.44z" />
<glyph unicode="&#xe616;" d="M511.786 284.404h-186.407l-69.414 195.381-69.378-195.381h-186.371l152.054-114.758-54.355-201.431 158.067 120.735 158.067-120.735-54.355 201.431 152.109 114.758zM255.964 145.993l-87.545-72.702 36.097 103.532-82.876 66.853 102.351-2.906 31.937 117.429 31.973-117.429 102.351 2.906-82.876-66.853 36.133-103.532-87.545 72.702z" />
<glyph unicode="&#xe617;" d="M256 479.786l69.414-195.382h186.371l-152.073-114.758 54.355-201.431-158.067 120.735-158.067-120.735 54.355 201.431-152.073 114.758h186.371z" />
<glyph unicode="&#xe618;" d="M255.968 479.712c0.32 0 0.608-0.192 0.928-0.224 4.704-0.128 9.408-1.952 13.024-5.888 0.672-0.704 0.928-1.664 1.472-2.432l174.368-190.368c7.52-8.192 7.52-21.472 0-29.664-7.488-8.192-19.648-8.192-27.168 0l-143.104 156.256v-418.304c0-11.776-8.736-21.344-19.52-21.344s-19.552 9.568-19.552 21.344v418.304l-143.136-156.256c-7.488-8.192-19.648-8.192-27.168 0s-7.488 21.472 0 29.664l174.4 190.368c0.544 0.768 0.8 1.728 1.472 2.432 3.616 3.936 8.288 5.76 13.024 5.888 0.32 0.032 0.608 0.224 0.96 0.224v0z" />
<glyph unicode="&#xe619;" d="M256.032-31.712c-0.32 0-0.608 0.192-0.928 0.224-4.704 0.128-9.408 1.952-13.024 5.888-0.672 0.704-0.928 1.664-1.472 2.432l-174.368 190.368c-7.52 8.192-7.52 21.472 0 29.664 7.488 8.192 19.648 8.192 27.168 0l143.104-156.256v418.304c0 11.776 8.736 21.344 19.52 21.344s19.552-9.568 19.552-21.344v-418.304l143.136 156.256c7.488 8.192 19.648 8.192 27.168 0s7.488-21.472 0-29.664l-174.4-190.368c-0.544-0.768-0.8-1.728-1.472-2.432-3.616-3.936-8.288-5.76-13.024-5.888-0.32-0.032-0.608-0.224-0.96-0.224v0z" />
<glyph unicode="&#xe61a;" d="M256 302.24l-204.448-204.48h-51.136l255.584 255.584 255.648-255.584h-51.168l-204.48 204.48z" />
<glyph unicode="&#xe61b;" d="M256.384 148.864l203.648 205.248 51.136 0.192-254.592-256.576-256.64 254.624 51.168 0.192 205.28-203.68z" />
<glyph unicode="&#xe61c;" d="M180.864 223.616l205.248-203.648 0.192-51.136-256.576 254.592 254.624 256.64 0.192-51.168-203.68-205.28z" />
<glyph unicode="&#xe61d;" d="M331.136 223.616l-205.248-203.648-0.192-51.136 256.576 254.592-254.624 256.64-0.192-51.168 203.68-205.28z" />
<glyph unicode="&#xe61e;" d="M538.656 284.192l-186.112 27.072-83.232 168.64-83.232-168.64-186.080-27.072 134.656-131.264-31.808-185.344 166.464 87.488 166.464-87.488-31.808 185.344 134.688 131.264zM1077.312 284.192l-186.112 27.072-83.232 168.64-83.232-168.64-186.112-27.072 134.656-131.264-31.808-185.344 166.464 87.488 166.464-87.488-31.808 185.344 134.72 131.264zM1615.968 284.416l-186.080 27.072-83.232 168.64-83.232-168.64-186.112-27.072 134.656-131.264-31.808-185.344 166.496 87.488 166.432-87.488-31.776 185.344 134.656 131.264zM2154.624 284.416l-186.080 27.072-83.232 168.64-83.264-168.64-186.080-27.072 134.656-131.264-31.776-185.344 166.464 87.488 166.432-87.488-31.776 185.344 134.656 131.264zM2693.28 284.416l-186.080 27.072-83.232 168.64-83.264-168.64-186.080-27.072 134.656-131.264-31.776-185.344 166.464 87.488 166.432-87.488-31.776 185.344 134.656 131.264z" horiz-adv-x="2688" />
<glyph unicode="&#xe61f;" d="M256 480c-141.408 0-256-114.624-256-256s114.624-256 256-256c141.376 0 256 114.624 256 256s-114.624 256-256 256zM376.576 43.168l-120.576 63.36-120.576-63.36 23.040 134.208-97.504 95.072 134.752 19.584 60.288 122.112 60.256-122.112 134.816-19.584-97.568-95.072 23.072-134.208z" />
<glyph unicode="&#xe620;" d="M256 480c-141.408 0-256-114.592-256-256s114.624-256 256-256c141.376 0 256 114.624 256 256s-114.624 256-256 256zM432.288 246.944c-4.544-4.512-11.488-4.096-16.896 0.992-50.176 47.36-100.288 94.816-150.592 142.048-9.504 8.928-6.56 8.96-16.288 0.064-41.024-37.696-81.792-75.648-122.56-113.536-1.6-1.44-2.72-3.36-4.064-5.056 2.112-0.448 4.256-1.12 6.4-1.216 4.448-0.16 8.864 0 13.312-0.064 8.448-0.096 15.104-4.032 15.040-14.976-0.288-45.568-0.064-83.136-0.032-128.704 0-6.112 0.32 1.504 6.656 1.504 62.304 0 124.672 0 186.976 0 6.368 0 1.76-15.552 1.76-9.056 0 39.36 0 78.816 0 118.208 0 5.216 3.008 9.792 8.064 12.928 7.872 4.896 20.672-0.672 20.928-8.736 0.128-3.008 3.008-6.016 3.008-8.992 0-37.664 0-75.328 0-113.024 0-6.432-1.44-12.864-1.696-19.264-0.384-8.928-4.896-12.576-14.016-12.576-23.904-0.128-48.192-0.064-72.128-0.064-49.408 0-98.976 0.064-148.416-0.064-5.696 0-11.328 0.512-13.856 6.432-1.152 2.752-1.408 6.112-1.44 9.184 0 45.216 0 90.304 0 135.424 0 6.976-0.128 7.104-7.264 7.104-11.904 0-23.84 0.192-35.712-0.096-6.112-0.096-10.72 1.888-13.28 7.392-2.208 4.864-0.32 10.848 4.544 15.36 12.864 12 25.856 23.904 38.752 35.904 30.24 28.032 60.48 56.096 90.72 84.16 12.448 11.584 24.8 17.76 37.44 29.248 2.112 1.856 5.152-1.472 7.744-1.472 0.864 0 1.76 0 2.56 0 7.392 0 11.36-1.888 16.256-6.432 49.344-46.4 98.528-90.176 147.776-136.672 3.616-3.424 7.424-5.376 10.88-8.992 5.376-5.664 5.056-11.36-0.576-16.96zM309.376 248.48h-32.864c-3.872 0-7.040 3.168-7.040 7.072v32.832c0 3.904 3.168 7.072 7.040 7.072h32.864c3.872 0 7.040-3.168 7.040-7.072v-32.832c0-3.904-3.168-7.072-7.040-7.072zM316.416 222.24v-32.864c0-3.872-3.168-7.072-7.040-7.072h-32.864c-3.872 0-7.040 3.2-7.040 7.072v32.864c0 3.872 3.168 7.040 7.040 7.040h32.864c3.872 0 7.040-3.168 7.040-7.040zM240.832 248.48h-32.832c-3.904 0-7.072 3.168-7.072 7.072v32.832c0 3.904 3.168 7.072 7.072 7.072h32.832c3.904 0 7.072-3.168 7.072-7.072v-32.832c0-3.904-3.168-7.072-7.072-7.072zM247.904 222.24v-32.864c0-3.872-3.168-7.072-7.072-7.072h-32.832c-3.904 0-7.072 3.2-7.072 7.072v32.864c0 3.872 3.168 7.040 7.072 7.040h32.832c3.904 0 7.072-3.168 7.072-7.040z" />
<glyph unicode="&#xe621;" d="M256 480c-141.408 0-256-114.624-256-256s114.624-256 256-256c141.376 0 256 114.624 256 256s-114.624 256-256 256zM388.544 331.008c-5.056-5.984-12.416-11.008-22.048-11.008h-78.496v-226.784c0-10.56-3.328-18.432-8.48-23.584-5.184-5.152-13.216-7.744-24.512-7.744-10.784 0-18.272 2.592-23.104 7.744s-7.904 13.024-7.904 23.584v226.784h-82.144c-8.288 0-14.656 4.288-19.136 10.112-4.48 5.888-6.944 13.888-7.392 24.48 0.896 18.368 9.728 29.408 26.528 29.408h224.672c19.296 0 29.376-11.040 30.304-29.408-0.48-9.888-3.232-17.632-8.288-23.584z" />
<glyph unicode="&#xe622;" d="M260.128 369.024c-54.24 0-98.368-44.224-98.368-98.592 0-61.312 73.824-156 98.24-185.76 24.64 29.696 98.88 124.48 98.56 185.696-0.256 54.4-44.416 98.656-98.432 98.656zM260.128 229.184c-22.816 0-41.408 18.592-41.408 41.44s18.592 41.408 41.408 41.408c22.88 0 41.44-18.56 41.44-41.408s-18.56-41.44-41.44-41.44zM254.016 480c-141.408 0-256-114.624-256-256s114.624-256 256-256c141.376 0 256 114.624 256 256s-114.656 256-256 256zM267.744 61.76c-1.984-2.176-4.8-3.488-7.744-3.488-3.168 0.064-5.888 1.312-7.808 3.552-4.544 5.184-111.168 127.808-111.168 208.64 0 65.792 53.408 119.328 119.104 119.328 65.44 0 118.816-53.504 119.136-119.264 0.384-80.896-106.944-203.52-111.52-208.768zM280.832 270.624c0-11.435-9.269-20.704-20.704-20.704s-20.704 9.269-20.704 20.704c0 11.434 9.269 20.704 20.704 20.704s20.704-9.269 20.704-20.704z" />
<glyph unicode="&#xe623;" d="M508.896 281.088l-175.808 25.568-78.624 159.328-78.656-159.328-175.808-25.568 127.232-124.032-30.016-175.072 157.28 82.624 157.248-82.624-30.016 175.072 127.168 124.032z" />
<glyph unicode="&#xe624;" d="M258.784 460.128c10.24-1.856 15.808-10.24 22.592-16.64 68.608-64.512 137.024-129.216 205.472-193.888 5.056-4.768 10.304-9.376 15.072-14.432 7.52-7.84 7.040-17.728-0.768-25.504-6.304-6.24-15.968-5.696-23.456 1.344-69.824 65.92-139.456 131.904-209.44 197.6-13.248 12.48-9.184 12.512-22.656 0.128-56.992-52.416-113.696-105.216-170.464-157.92-2.176-2.048-3.776-4.672-5.632-7.008 2.976-0.608 5.888-1.568 8.896-1.664 6.144-0.288 12.352 0 18.528-0.096 11.744-0.128 20.992-5.632 20.864-20.864-0.416-63.328-0.064-126.688 0-190.016 0-8.512 0.448-8.96 9.248-8.96 86.656 0 173.344 0 260 0 8.864 0 9.312 0.48 9.312 9.536 0 54.784 0.032 109.568-0.032 164.352 0 7.264 0.768 13.632 7.776 17.984 11.008 6.816 25.152-0.928 25.472-12.096 0.16-4.192 0.576-8.384 0.576-12.544 0-52.384 0-104.736 0-157.152 0-8.896-0.032-17.92-0.448-26.816-0.544-12.416-5.856-17.408-18.464-17.472-33.248-0.096-66.496-0.032-99.776-0.032-68.704 0-137.44 0.032-206.176-0.064-7.936 0-15.584 0.64-19.104 8.896-1.632 3.872-1.888 8.544-1.888 12.8-0.128 62.752-0.064 125.504-0.064 188.256 0 9.696-0.192 9.856-10.112 9.856-16.544 0-33.088 0.288-49.6-0.064-8.48-0.224-14.912 2.56-18.464 10.272-3.168 6.752-0.48 15.040 6.272 21.28 17.92 16.672 35.968 33.28 53.888 49.952 42.048 38.976 84.096 77.984 126.112 116.992 17.344 16.096 34.56 32.384 52.096 48.256 2.912 2.656 7.136 3.84 10.752 5.696 1.216 0.032 2.4 0.032 3.616 0.032v0zM244.736 221.664c0-5.408-4.384-9.824-9.792-9.824h-45.696c-5.408 0-9.792 4.416-9.792 9.824v45.696c0 5.408 4.384 9.792 9.792 9.792h45.728c5.408 0 9.792-4.352 9.792-9.792v-45.696h-0.032zM340 221.664c0-5.408-4.384-9.824-9.76-9.824h-45.728c-5.376 0-9.792 4.416-9.792 9.824v45.696c0 5.408 4.384 9.792 9.792 9.792h45.728c5.376 0 9.76-4.352 9.76-9.792v-45.696zM244.736 129.664c0-5.408-4.384-9.792-9.792-9.792h-45.696c-5.408 0-9.792 4.384-9.792 9.792v45.696c0 5.408 4.384 9.76 9.792 9.76h45.728c5.408 0 9.792-4.352 9.792-9.76v-45.696h-0.032zM340 129.664c0-5.408-4.384-9.792-9.76-9.792h-45.728c-5.376 0-9.792 4.384-9.792 9.792v45.696c0 5.408 4.384 9.76 9.792 9.76h45.728c5.376 0 9.76-4.352 9.76-9.76v-45.696z" />
<glyph unicode="&#xe625;" d="M201.952 20.512v360.448h-128.288c-12.992 0-23.008 4.608-30.048 13.824-7.008 9.184-10.912 22.080-11.616 38.656 1.44 28.864 15.328 44.416 41.664 46.56h352.896c30.304-2.144 46.144-17.696 47.616-46.56-0.704-15.52-5.056-27.968-12.992-37.344s-19.456-14.432-34.624-15.168h-122.304v-360.448c-1.12-16.608-5.696-28.96-13.824-37.088-8.128-8.096-21.024-12.16-38.688-12.16-16.96 0-29.216 4.064-36.8 12.16-7.584 8.128-11.936 20.512-12.992 37.12v0z" />
<glyph unicode="&#xe626;" d="M319.712 296.768c0 35.136-28.608 63.68-63.744 63.68s-63.712-28.544-63.712-63.68c0-35.168 28.576-63.744 63.712-63.744 35.168 0 63.744 28.576 63.744 63.744zM224.128 296.768c0 17.568 14.304 31.872 31.84 31.872 17.568 0 31.872-14.304 31.872-31.872s-14.304-31.904-31.872-31.904c-17.536 0-31.84 14.336-31.84 31.904zM255.712-29.888c4.576 0 8.928 1.952 11.968 5.344 7.008 8.032 172.128 196.672 171.552 321.088-0.48 101.152-82.624 183.456-183.264 183.456-101.056 0-183.232-82.336-183.232-183.52 0-124.352 164-312.896 170.976-320.928 3.040-3.424 7.2-5.376 12-5.44zM255.968 448.096c83.104 0 151.008-68.032 151.36-151.712 0.48-94.176-113.792-239.968-151.616-285.664-37.568 45.728-151.072 191.424-151.072 285.76 0 83.616 67.904 151.616 151.328 151.616z" />
<glyph unicode="&#xe627;" d="M254.112 480c-140.32 0-254.112-113.792-254.112-254.112s113.792-254.112 254.112-254.112 254.112 113.792 254.112 254.112-113.76 254.112-254.112 254.112v0zM395.776 228.704v-7.808h-0.064c-1.088-16.96-15.2-30.336-32.416-30.336h-73.856v-106.336h-40.288v0.064c-16.96 1.088-30.4 15.2-30.4 32.416v73.856h-106.272v40.288h0.064c1.088 16.96 15.168 30.4 32.416 30.4h73.824v106.272h40.32v-0.064c16.96-1.088 30.336-15.168 30.336-32.416v-73.824h106.336v-32.512z" />
<glyph unicode="&#xe628;" d="M256 480c-141.376 0-256-114.624-256-256s114.624-256 256-256 256 114.624 256 256c0 141.376-114.624 256-256 256zM241.664 407.552h25.76l2.976-52.352h-31.328l2.592 52.352zM237.792 320h33.92l4.704-96h-43.36l4.736 96zM163.488 96h-65.664c-17.76 0-28.96 5.952-33.696 18.4-4.704 12.48-3.648 29.984 3.232 52.896 2.304 7.424 5.024 16.704 8.16 28 3.168 11.328 6.528 23.424 10.112 36.512 3.52 12.96 7.104 26.432 10.688 40.288 3.584 13.92 7.104 27.168 10.528 39.712 3.424 12.608 6.528 23.968 9.248 34.112 2.72 10.176 5.088 18.272 7.072 24.256 2.88 8.576 5.568 15.392 8.16 20.384 2.56 5.024 5.344 8.736 8.352 11.168s6.368 8 10.080 8.736 8.288 5.536 13.728 5.536h49.792l-49.792-320zM227.040 96l4.704 96h45.504l4.736-96h-54.944zM441.952 102.592c-4.16-4.608-10.4-6.592-18.688-6.592h-78.112l-50.272 320h40.384c14.304 0 26.304-7.168 36.064-13.44 9.76-6.304 17.184-19.616 22.304-35.936 1.728-5.152 3.872-14.176 6.432-25.056l9.44-37.408c3.424-13.76 6.944-28.32 10.56-43.2 3.552-14.88 6.912-29.056 10.048-42.208l8.992-35.296c2.592-10.304 4.608-17.472 6.016-21.472 1.984-6.304 3.552-13.344 4.704-21.088 1.152-7.68 1.152-14.784 0-21.536-1.12-6.688-3.776-12.16-7.872-16.768z" />
<glyph unicode="&#xe629;" d="M180.224 177.024c-4.576 0-8.352-1.568-11.328-4.672-2.944-3.040-4.416-6.72-4.416-11.104 0-4.32 1.472-8.064 4.448-11.136 2.976-3.104 6.72-4.64 11.328-4.64 4.352 0 8.032 1.536 11.136 4.64 3.104 3.072 4.64 6.816 4.64 11.136 0 4.384-1.536 8.064-4.64 11.136s-6.816 4.64-11.168 4.64zM330.4 176.352c-4.384 0-7.968-1.472-10.816-4.48-2.848-2.976-4.256-6.496-4.256-10.624s1.44-7.648 4.288-10.624 6.432-4.448 10.816-4.448c4.096 0 7.584 1.472 10.432 4.448 2.88 2.976 4.288 6.496 4.288 10.624s-1.408 7.648-4.288 10.624c-2.88 3.008-6.368 4.48-10.464 4.48zM212.48 352h87.040c2.976 0 5.504-4 7.552-1.952s3.104 2.176 3.104 5.376c0 2.976-1.056-1.536-3.104 0.512-2.048 2.080-4.576-3.936-7.552-3.936h-87.040c-3.008 0-5.504 4.736-7.552 2.656-2.080-2.016-3.104-1.664-3.104-4.64 0-3.232 1.024 0.64 3.104-1.408 2.048-2.048 4.544 3.392 7.552 3.392zM256 480c-141.376 0-256-114.624-256-256s114.624-256 256-256 256 114.624 256 256c0 141.376-114.624 256-256 256zM384 148.928v-16.512c0-5.248-0.288-9.824-1.44-13.696-1.12-3.872-8.672-6.976-11.68-9.248-2.944-2.272 13.12-3.424-18.88-3.424v-21.248c0-5.952 3.52-11.040-0.672-15.264-4.224-4.256-6.496-6.368-12.448-6.368s-9.792 2.112-13.92 6.368c-4.096 4.256-4.96 9.344-4.96 15.264v11.2h-128v-11.2c0-5.952-2.272-11.040-6.4-15.264-4.096-4.256-9.248-6.368-15.2-6.368s-5.408 2.112-9.664 6.368c-4.192 4.256-0.736 9.344-0.736 15.264v21.248c-32 0-15.712 1.12-18.656 3.424-2.976 2.272-7.872 5.376-8.992 9.248-1.152 3.872-2.912 8.384-3.008 13.536-0.16 5.184-1.344 10.72-1.344 16.672v193.024c0 5.952 0.864 11.488 3.136 16.64s5.248 9.632 9.12 13.536 8.32 6.592 13.44 8.864c5.184 2.272 10.656 3.008 16.608 3.008h171.424c5.952 0 11.456-0.736 16.64-3.040 5.12-2.304 9.664-5.184 13.536-9.056 3.904-3.904 6.688-8.288 8.96-13.44 2.304-5.12 3.136-10.592 3.136-16.512v-193.024zM160 320h192v-96h-192v96z" />
<glyph unicode="&#xe62a;" d="M254.432-24.864c-139.424 0-252.448 113.024-252.448 252.448 0 139.392 113.024 252.416 252.448 252.416 139.392 0 252.448-113.024 252.448-252.448 0-139.392-113.024-252.416-252.448-252.416v0zM295.616 286.752c-0.864 2.688-1.856 5.056-2.944 7.2 14.528 3.968 25.248 16.896 25.248 32.448 0 18.656-15.328 33.792-34.336 33.792-18.976 0-34.368-15.136-34.368-33.792 0-6.336 1.888-12.16 4.96-17.216-49.216-9.248-70.784-33.248-73.728-36.608l1.728 2.88c-1.984-3.232-2.592-3.84-1.728-2.88l-27.808-46.784c-4.672-7.616-2.432-18.464 6.144-21.728 18.208-6.976 20.192 14.208 46.88 45.664 9.312 10.976 20.768 12.672 20.768 12.672l-72.192-129.504c-6.816-7.52-6.048-19.104 1.664-25.856s19.52-6.112 26.368 1.376l59.36 79.072 43.392-35.936 10.4-42.592c0.864-8.448 9.408-14.048 19.104-12.544 9.632 1.504 16.704 9.568 15.84 17.984l-12.64 51.84c-6.656 21.184-43.808 53.472-43.808 53.472l6.528 23.872c0 0 82.368-66.752 86.688-28.992 2.848 24.128-13.664-4.384-71.52 72.16v0zM242.368 188.448l-0.704-0.96-1.088 0.928 1.792 0.032z" />
<glyph unicode="&#xe62b;" d="M507.392 226.272c0-140.096-113.6-253.728-253.696-253.728-140.128 0.032-253.696 113.632-253.696 253.728 0 140.16 113.568 253.728 253.696 253.728s253.696-113.568 253.696-253.728v0zM382.752 261.248l-25.344 64.768c-4.768 12.352-15.136 22.848-34.624 22.848h-35.808c0 0-11.648 27.136-17.632 27.136h-25.824c-5.984 0-17.6-27.136-17.6-27.136h-36.224c-19.456 0-29.824-10.528-34.56-22.848l-25.376-64.768c-10.048-1.28-27.84-12.928-27.84-35.072v-82.368h28.512v-20.544c0-32.416 38.624-32.064 38.624 0v20.544h174.4v-20.544c0-32.064 38.624-32.416 38.624 0v20.544h28.544v82.368c-0.032 22.144-17.856 33.824-27.872 35.072v0zM151.872 187.904c-13.664 0-24.736 11.296-24.736 25.248s11.104 25.28 24.736 25.28c13.664 0 24.736-11.328 24.736-25.28s-11.072-25.248-24.736-25.248v0zM142.816 266.080l21.6 56.672c2.72 8.128 6.784 13.984 16.256 14.080h151.232c9.408-0.064 13.472-5.952 16.16-14.048l21.6-56.672-226.848-0.032zM360.64 187.904c-13.664 0-24.736 11.296-24.736 25.248s11.104 25.28 24.736 25.28 24.768-11.328 24.768-25.28c0-13.952-11.136-25.248-24.768-25.248v0z" />
<glyph unicode="&#xe62c;" d="M256 480c-141.376 0-256-114.624-256-256s114.624-256 256-256c141.344 0 256 114.624 256 256s-114.656 256-256 256zM256-12.32c-130.528 0-236.32 105.824-236.32 236.288 0 130.56 105.792 236.352 236.32 236.352 130.496 0 236.288-105.792 236.288-236.352 0-130.464-105.824-236.288-236.288-236.288zM397.664 250.336h-115.36v115.328h-52.672v-115.36h-115.328v-52.64h115.328v-115.36h52.672v115.36h115.36z" />
</font>
</defs>
</svg>
